<?xml version="1.0" encoding="utf-8"?>
<!-- Generator: Adobe Illustrator 19.1.0, SVG Export Plug-In . SVG Version: 6.00 Build 0)  -->
<!DOCTYPE svg PUBLIC "-//W3C//DTD SVG 1.1//EN" "http://www.w3.org/Graphics/SVG/1.1/DTD/svg11.dtd">
<svg version="1.1" id="Layer_1" xmlns="http://www.w3.org/2000/svg" xmlns:xlink="http://www.w3.org/1999/xlink" x="0px" y="0px"
	 width="300px" height="300px" viewBox="0 0 300 300" style="enable-background:new 0 0 300 300;" xml:space="preserve">
<style type="text/css">
	.st0{fill:#664F44;}
	.st1{fill:#132134;}
	.st2{fill:#90694C;}
	.st3{fill:#DA5A47;}
	.st4{fill:#FCE9CD;}
	.st5{fill:none;}
	.st6{fill:#4D9ED7;}
	.st7{fill:#FFFFFF;}
	.st8{fill:#F2D2AC;}
	.st9{fill:#E9B784;}
	.st10{fill:#FFD250;}
	.st11{fill:#EAADA7;}
</style>
<path class="st0" d="M265.3,265.2c-0.9,0.9-2,1.3-3.3,1.3c-1.3,0-2.5-0.5-3.4-1.4c-0.9-0.9-1.4-2-1.4-3.4c0-1.4,0.5-2.5,1.5-3.5
	c0.9-0.9,2-1.3,3.3-1.3c1.3,0,2.4,0.5,3.4,1.4c0.9,0.9,1.4,2,1.4,3.3C266.7,263.1,266.2,264.3,265.3,265.2z M259.1,259
	c-0.8,0.8-1.1,1.7-1.1,2.7c0,1.1,0.4,2,1.2,2.8c0.8,0.8,1.7,1.2,2.8,1.2c1.1,0,2-0.4,2.8-1.2c0.8-0.8,1.1-1.7,1.1-2.8
	c0-1.1-0.4-2-1.1-2.7c-0.8-0.8-1.7-1.2-2.8-1.2C260.8,257.9,259.9,258.3,259.1,259z M263.5,264.2c-0.5,0.3-0.9,0.4-1.4,0.4
	c-0.7,0-1.3-0.3-1.9-0.8c-0.5-0.5-0.8-1.2-0.8-2c0-0.8,0.2-1.4,0.7-2c0.5-0.5,1.1-0.8,1.9-0.8c0.5,0,0.9,0.1,1.3,0.3
	c0.6,0.3,1,0.9,1.1,1.8l-1.2,0c-0.1-0.4-0.2-0.7-0.5-0.8c-0.2-0.1-0.4-0.2-0.6-0.2c-0.4,0-0.6,0.1-0.9,0.4c-0.2,0.3-0.3,0.7-0.3,1.3
	c0,0.6,0.1,1,0.4,1.3c0.3,0.3,0.6,0.4,0.9,0.4c0.3,0,0.6-0.1,0.7-0.3c0.2-0.2,0.3-0.4,0.3-0.7h1.2
	C264.2,263.3,263.9,263.9,263.5,264.2z"/>
<path class="st0" d="M275.4,214.3c0-0.5-0.1-0.9-0.1-1.4c0-0.3-0.1-0.6-0.2-0.8c-0.1-0.6-0.3-1.3-0.5-1.9l0,0
	c-0.4-1.2-1.1-2.4-2-3.4c-0.9-1-1.9-1.8-2.9-2.3l0,0c-1.1-0.6-2.2-0.9-3.2-1.1c-0.3-0.1-0.6-0.1-0.8-0.1c1.3-5.4-0.3-9.5-1.3-11.4
	c0.1-0.1,0.2-0.2,0.2-0.2c1.3-1.3,2.5-2.5,3.4-3.8l0.2-0.2c0.8-1.1,1.3-2.2,1.6-3.3c0.3-0.9,0.4-1.7,0.5-2.4l0,0l0,0l0-0.1l0-0.2h0
	l0-0.3h0l0-0.2c0-0.2,0-0.3,0-0.5c0-0.3,0-0.6,0-1c-0.1-1.7-0.4-3.8-1.5-6.2c-0.5-1.2-1.3-2.4-2.3-3.5c-1-1.1-2.3-2.1-3.7-2.9l0,0
	c-0.1-0.1-0.2-0.1-0.3-0.2c-3-4.4-6.4-7.8-9.4-10.4c-1.6-1.3-3-2.5-4.3-3.4c-1.2-0.9-2.3-1.6-2.9-2.1l0,0c-1.3-1-2.3-1.6-2.8-1.8
	c-1.1-0.7-1.9-1.2-2.4-1.6c-0.4-0.3-0.6-0.5-0.6-0.6l0,0c0,0,0-0.1-0.1-0.4c-0.1-0.3-0.1-0.8-0.2-1.5c-0.1-1.1,0-2.8,0.1-5
	c0.2-3.6,0.6-8.5,1-15.1c0.1-2.1,0.2-4.1,0.1-6c-0.1-3-0.5-5.7-1.1-8.2l0,0c-0.1-0.6-0.3-1.1-0.5-1.7l0,0l0,0
	c-0.1-0.4-0.2-0.7-0.3-0.9l0,0c-0.1-0.4-0.3-0.7-0.4-1.1l0,0c-0.1-0.2-0.2-0.4-0.3-0.7l0,0l0,0c-0.2-0.5-0.5-1.1-0.8-1.7l-0.1-0.2
	l-0.2-0.3l-0.1-0.2c-0.6-1-1.2-1.9-1.9-2.8c-0.3-1.5-0.9-3.8-1.9-6.4c-0.9-2.3-2-4.8-3.7-7.2c-0.6-0.9-1.2-1.7-1.9-2.5l0.2-0.2
	c0.3-0.3,8.3-8.6,14.4-19.4c11.6-20.1,7.7-32.3,2.4-39.1l-0.1-0.2l-0.2-0.2c-5.1-5.6-12-9-20.5-10.1c-17.7-2.2-37.6,6.5-42.9,8.9
	l-9.5-10.5l0,0c-0.8-0.9-1.8-1.8-2.8-2.5c-1-0.7-2.1-1.4-3.2-1.9c-2.3-1.1-4.8-1.7-7.4-2c-5.3-0.7-11.3,0-17.8,1.6
	c-9.8,2.5-20.7,7.4-32.2,14.3C97,30.7,85,39.6,73.5,50.2C59.3,63.1,47.6,76.7,39.1,89.7c-4.3,6.5-7.7,12.8-10.3,18.8
	c-2.6,6-4.3,11.6-4.9,16.9c-0.5,3.8-0.4,7.4,0.4,10.7c0.3,1.4,0.8,2.8,1.4,4.2c0.8,1.7,1.8,3.3,3.1,4.7l0,0l10,10.4l1.1,1.2
	l-0.1,0.1c-0.1,0.2-0.2,0.4-0.4,0.6c-0.2,0.3-0.3,0.6-0.5,0.9c-0.1,0.2-0.2,0.4-0.3,0.7c-0.2,0.3-0.3,0.6-0.5,1
	c-0.1,0.2-0.2,0.4-0.3,0.7c-0.1,0.3-0.3,0.7-0.4,1c-0.1,0.2-0.2,0.4-0.3,0.7c-0.1,0.3-0.3,0.7-0.4,1c-0.1,0.2-0.2,0.5-0.2,0.7
	c-0.1,0.4-0.2,0.7-0.3,1.1c0,0.1-0.1,0.2-0.1,0.3c0,0.1-0.1,0.3-0.1,0.4c-0.1,0.4-0.2,0.7-0.3,1.1c-0.1,0.2-0.1,0.4-0.2,0.7
	c0,0.2-0.1,0.3-0.1,0.5c0,0.2-0.1,0.5-0.1,0.7c0,0.2-0.1,0.4-0.1,0.6c-0.1,0.5-0.2,0.9-0.2,1.4c0,0.1,0,0.3-0.1,0.4l0,0l0,0.1
	c0,0.3-0.1,0.6-0.1,0.9c0,0.5-0.1,1-0.1,1.5c0,0.2,0,0.4,0,0.7c0,0.2,0,0.3,0,0.5c0,0.3,0,0.7,0,1c0,0.2,0,0.4,0,0.6
	c0,0.1,0,0.2,0,0.4v0v0c0,0.2,0,0.5,0,0.7c0,0.2,0,0.5,0,0.7c0,0.2,0,0.4,0,0.5c0,0.2,0,0.3,0,0.4c0,0.2,0,0.5,0.1,0.7
	c0,0.3,0.1,0.5,0.1,0.9l0,0v0c0,0.1,0,0.2,0,0.3c0,0.3,0.1,0.5,0.1,0.8c0,0.2,0.1,0.5,0.1,0.8c0,0.1,0,0.2,0.1,0.3
	c0,0.2,0.1,0.3,0.1,0.5l0,0l0,0l0,0.2c0,0.2,0.1,0.5,0.2,0.9c0,0.1,0,0.2,0.1,0.2c0.1,0.2,0.1,0.4,0.1,0.5l0.1,0.2
	c0,0.1,0,0.2,0.1,0.3l0.1,0.2l0.1,0.2l0,0.2c0,0.1,0,0.1,0.1,0.2l0.1,0.2c0.1,0.2,0.1,0.3,0.2,0.5c0.1,0.2,0.1,0.5,0.3,0.8l0-0.1
	l0,0.1c0,0.1,0.1,0.1,0.1,0.2c0.1,0.3,0.2,0.5,0.2,0.7l0,0v0c0.1,0.2,0.2,0.5,0.3,0.9l0,0l0,0l0,0l0,0l0,0l0.1,0.2
	c0.1,0.2,0.2,0.4,0.2,0.6l0.1,0.2l0,0c0,0.1,0.1,0.2,0.1,0.4c0.1,0.1,0.1,0.3,0.2,0.5l0,0l0.1,0.2c0.1,0.2,0.1,0.3,0.2,0.4
	c0.1,0.1,0.1,0.2,0.2,0.3l0,0l0,0l0,0l0,0l0,0c0.1,0.2,0.2,0.4,0.4,0.8l0,0l0,0l0.1,0.1c0.1,0.1,0.1,0.3,0.2,0.4
	c0.1,0.2,0.2,0.3,0.2,0.4l0,0c0.1,0.2,0.2,0.4,0.4,0.7l0,0l0,0l0.1,0.1c0.1,0.1,0.1,0.2,0.2,0.3c0.1,0.2,0.2,0.3,0.3,0.5l0,0l0,0
	c0.1,0.1,0.2,0.3,0.4,0.6l0,0l0,0.1c0.1,0.1,0.2,0.3,0.2,0.4c0.1,0.2,0.2,0.3,0.3,0.5l0,0c0.1,0.1,0.2,0.4,0.4,0.6l0,0l0,0l0,0l0,0
	l0,0l0,0l0,0l0,0c0.1,0.1,0.2,0.3,0.3,0.4c0.1,0.2,0.2,0.3,0.3,0.5l0,0c0.1,0.1,0.2,0.3,0.4,0.5l0,0c0.1,0.2,0.2,0.3,0.3,0.4
	c0.1,0.2,0.3,0.3,0.4,0.5l0,0.1c0.1,0.1,0.2,0.2,0.3,0.4l0.1,0.1l0,0l0,0l0,0l0,0c0.2,0.2,0.4,0.4,0.6,0.6l0.2,0.2v0l0,0l0,0l0,0
	l0,0c0.1,0.1,0.2,0.2,0.3,0.4l0,0l0,0l0,0l0,0l0,0c0.2,0.2,0.4,0.4,0.6,0.7c0.1,0.1,0.2,0.2,0.3,0.3l0,0c0,0,0.1,0.2,0.3,0.3l0,0
	l0.1,0.1c0.3,0.3,0.5,0.5,0.8,0.7l0.1,0.1l0,0l0,0l0,0c0.1,0.1,0.2,0.2,0.3,0.3l0,0c0.3,0.3,0.7,0.6,1,0.9l0,0l0.2,0.2l0.1,0.1l0,0
	l0.2,0.2c0.3,0.2,0.6,0.5,0.8,0.7l0.1,0.1l0,0c0.1,0.1,0.2,0.1,0.2,0.2l0.1,0l0,0c0.1,0.1,0.2,0.1,0.2,0.2c0.2,0.2,0.5,0.3,0.7,0.5
	l0.2,0.1l0,0l0.3,0.2l0,0l0.1,0.1c0.2,0.2,0.5,0.3,0.8,0.5c0.1,0.1,0.3,0.2,0.4,0.3l0.2,0.1l0.1,0.1l0.1,0c0.4,0.2,0.8,0.5,1.1,0.7
	l0,0l0.2,0.1l0,0c0.5,0.3,0.9,0.5,1.4,0.7l0.1,0l0.2,0.1l0,0c0.2,0.1,0.5,0.2,0.7,0.3c0.1,0.1,0.2,0.1,0.3,0.2
	c0.1,0.1,0.3,0.1,0.4,0.2l0.1,0l0,0l0.1,0c0.2,0.1,0.4,0.2,0.7,0.3l0.1,0c0.3,0.1,0.5,0.2,0.8,0.3l0.1,0l0.2,0.1
	c0.1,0,0.2,0.1,0.4,0.1l0.1,0c0.4,0.1,0.7,0.3,1.1,0.4l0.1,0l0,0l0,0c0.6,0.2,1.1,0.3,1.7,0.5l0,0l0.1,0l0,0c0.5,0.1,1,0.2,1.5,0.3
	h0l0.2,0l0.2,0c0.5,0.1,0.9,0.2,1.4,0.3l0.1,0l0.3,0.1c0.3,0,0.6,0.1,0.8,0.1c0,0.1,0.1,0.2,0.1,0.3l0,0c0.8,2.1,1.6,4.2,2.5,6.3
	c13.3,36.8,50,65.3,91.9,70.5c41.9,5.2,86.7-22.6,104.9-60.3c0.8-1.4,1.5-2.9,2.2-4.2c1.8-1.9,3.2-3.8,4.1-5.8
	C275.1,218.9,275.5,216.4,275.4,214.3z"/>
<polygon class="st0" points="238.5,106.4 238.5,106.4 238.5,106.4 "/>
<polygon class="st0" points="53.5,209.3 53.5,209.3 53.5,209.3 "/>
<polygon class="st0" points="41.7,198.2 41.7,198.2 41.7,198.2 "/>
<polygon class="st0" points="41.7,198.2 41.7,198.2 41.7,198.2 "/>
<polygon class="st0" points="36.1,186.5 36.1,186.4 36.1,186.4 "/>
<polygon class="st0" points="35.6,184.6 35.6,184.6 35.6,184.6 "/>
<polygon class="st0" points="42.7,199.7 42.8,199.7 42.7,199.7 42.7,199.7 "/>
<path class="st1" d="M239.5,30.5c-2-2.3-4.4-4-6.9-5.2c-0.5-0.2-0.9-0.3-1.4-0.5c-0.2-0.2-0.5-0.3-0.7-0.5c-2.3-0.9-4.6-1.4-7.1-1.7
	c-12.2-1.6-26,2.9-34,6c-0.4,0.2-0.9,0.4-1.3,0.6c-0.7,0.3-1.3,0.6-2,0.9c-1.1,0.5-2.3,1-3.5,1.6c-0.2,0.1-0.3,0.2-0.5,0.2l-2.2-2.5
	l-1-1.1l-0.9-1l-0.4-0.5l-8.2-9.5l-0.7-0.8l-0.9-1l-0.2,0l-2.3,0.5l-2.7,0.6c-1.5-0.7-3.2-1.2-5.3-1.4c-4.1-0.5-9.2,0-15.1,1.5
	c-5.9,1.5-12.5,4-19.5,7.5c-14,7-29.6,17.7-44.5,31.4c-5.2,4.8-10.1,9.6-14.6,14.5c-4.4,4.7-8.3,9.5-11.9,14.2
	c-7.3,9.5-12.8,18.8-16.4,27c-2.4,5.5-3.8,10.6-4.4,14.9c-0.4,3.1-0.3,5.9,0.2,8.2c0.2,0.7,0.4,1.4,0.7,2c0.5,1.3,1.2,2.5,2.1,3.5
	l9.1,9.5l1,1l0.1-0.1c0.3-0.3,0.6-0.6,0.8-1l0.1-0.1c0.1-0.1,0.2-0.2,0.3-0.3c0.3-0.3,0.5-0.6,0.8-0.8c0.2-0.2,0.4-0.3,0.5-0.5
	c0.2-0.2,0.3-0.3,0.5-0.5c0.1-0.1,0.2-0.1,0.2-0.2c0.2-0.2,0.4-0.3,0.6-0.5c0.3-0.2,0.5-0.5,0.8-0.7c0.2-0.1,0.3-0.3,0.5-0.4
	l0.1-0.1c0.3-0.2,0.6-0.4,0.9-0.7c0.2-0.1,0.4-0.3,0.6-0.4c0.3-0.2,0.6-0.4,0.9-0.6c0.2-0.1,0.4-0.2,0.6-0.4c0.3-0.2,0.6-0.4,1-0.6
	c0.2-0.1,0.4-0.2,0.6-0.3c0.3-0.2,0.7-0.4,1-0.6c0.2-0.1,0.4-0.2,0.5-0.3l0.2-0.1l0,0c0.3-0.2,0.6-0.3,0.9-0.4
	c0.2-0.1,0.3-0.2,0.5-0.2c0.2-0.1,0.5-0.2,0.8-0.3c0.2-0.1,0.4-0.2,0.7-0.3l0.2-0.1c0.6-0.2,1.1-0.4,1.7-0.6
	c0.2-0.1,0.4-0.1,0.5-0.2c0.2-0.1,0.4-0.1,0.6-0.2l0.2-0.1c0.1,0,0.2-0.1,0.4-0.1c0.2-0.1,0.5-0.1,0.7-0.2l0.2-0.1
	c0.3-0.1,0.6-0.2,0.8-0.2c0.3-0.1,0.5-0.1,0.8-0.2c0.3-0.1,0.7-0.2,1-0.2c0.1,0,0.3-0.1,0.4-0.1c0.1,0,0.3,0,0.4-0.1
	c0.3-0.1,0.7-0.1,1-0.2c0.3,0,0.6-0.1,0.9-0.1c0.2,0,0.5-0.1,0.7-0.1c0.1,0,0.2,0,0.3,0c0.1,0,0.2,0,0.3,0l0.2,0
	c1.2,0,2.4,0,3.8,0.1l0.2,0c1.4,0.1,2.9,0.3,4.5,0.7c0.4,0.1,0.8,0.2,1.2,0.3c0.1-0.2,0.2-0.3,0.2-0.5c0.8-1.5,1.7-3,2.6-4.4
	c5-8.5,10.5-15.9,16-22.3c1.9-2.2,3.8-4.3,5.7-6.3c7.9-8.3,15.9-14.7,23.2-19.7c1.6-1.1,3.2-2.1,4.8-3.1c2.1-1.3,4.1-2.5,6.1-3.6
	c1.6-0.9,3.1-1.7,4.5-2.4c2.4-1.2,4.5-2.2,6.5-3c0.6-0.3,1.2-0.5,1.7-0.7c0.8-0.3,1.6-0.6,2.3-0.9c-0.6-0.1-1.2-0.1-1.8-0.1
	c-0.6,0-1.2,0-1.8,0c-0.2,0-0.3,0-0.4,0c-0.6,0-1.2,0-1.8,0.1c-1.2,0.1-2.4,0.2-3.6,0.4c-0.4,0.1-0.8,0.1-1.2,0.2
	c3-1.6,6-2.7,8.9-3.6c1.9-0.6,3.8-1.1,5.6-1.4c2.5-0.5,4.8-0.8,7-0.9c1.5-0.1,2.8-0.1,4.1-0.1c1.3,0,2.4,0.1,3.5,0.1
	c3.7,0.3,5.9,0.8,5.9,0.8c-0.5-0.7-1.2-1.4-1.9-1.9c-1.3-1-2.8-1.7-4.1-2.2c-0.5-0.2-1-0.4-1.4-0.5c-0.3-0.1-0.7-0.2-0.9-0.3
	c0.6-0.1,1.2-0.2,1.8-0.3c0.6-0.1,1.3-0.2,1.9-0.2c5.3-0.5,9.9,0,13.4,0.6c4.2,0.8,6.7,1.8,6.7,1.8c-0.6-1.2-1.5-2.2-2.5-3
	c-0.7-0.6-1.5-1.1-2.2-1.6c1.4,0.3,2.7,0.7,4,1.1c3.4,1,6.2,2.2,8.5,3.3c0.7,0.4,1.4,0.7,2,1c0.2,0.1,0.3,0.2,0.5,0.3
	c2.1,1.1,3.2,1.9,3.2,1.9c-0.3-1.2-1-2.4-1.9-3.4c-0.2-0.3-0.4-0.5-0.6-0.8l0.1,0c0.1,0,0.2,0.1,0.5,0.2c0.2,0.1,0.4,0.1,0.6,0.2
	c0.9,0.3,2.3,0.9,3.9,1.7c0.1,0,0.2,0.1,0.2,0.1c0.2,0.1,0.4,0.2,0.7,0.3c0.6,0.3,1.1,0.6,1.7,1c0.5,0.3,1.1,0.7,1.7,1
	c0.3,0.2,0.6,0.4,0.9,0.6c0.6,0.4,1.2,0.9,1.8,1.4c0.6,0.5,1.2,1.1,1.8,1.7c0.1,0.1,0.2,0.2,0.4,0.4c0.4,0.4,0.8,0.9,1.2,1.4
	c0.8,0.9,1.5,1.9,2.1,3c0.8,1.3,1.4,2.6,1.9,4.1c0,0.1,0,0.2,0.1,0.3c0.3-0.4,1-1,1.8-2C231.8,70.3,251.3,45.6,239.5,30.5z"/>
<path class="st2" d="M268.6,215.1L268.6,215.1c0,0,0.2-1.7-0.7-3.2l0,0c-0.1-0.1-0.1-0.2-0.2-0.3l-0.1-0.1c-0.1-0.1-0.2-0.3-0.3-0.4
	c-0.2-0.2-0.5-0.5-0.8-0.6c-0.2-0.1-0.3-0.2-0.5-0.3c-0.5-0.2-1.1-0.4-1.9-0.5c-0.5-0.1-1.1-0.1-1.8-0.1c-0.3,0-0.5,0-0.8,0l-0.1,0
	c0,0,0,0.1,0,0.2c0,0.1,0.1,0.3,0.1,0.5c0,0.1,0,0.2,0.1,0.3c0.1,0.4,0.2,0.9,0.3,1.4c0,0,0,0.1-0.1,0.3l0,0.1
	c-0.3,0.8-1.2,2.6-3.3,4.9c-0.3,0.4-0.7,0.8-1.1,1.2c-5.6,5.8-17.8,14.1-43.4,18.7c-8.7,1.2-16.7,1.3-23.5,0.4
	c-10.1-1.3-17.7-4.5-21.2-8.8c-0.3-0.4-0.6-0.8-0.9-1.1c-0.2-0.3-0.4-0.6-0.6-0.9c-0.1-0.1-0.1-0.2-0.2-0.3
	c-1.5-2.7-2.2-5.6-2.1-8.4c0-3.4,1.1-6.7,2.9-9.2c1.5-2,3.4-3.6,5.7-4.3c1.1-0.3,2.3-0.5,3.6-0.4c0.3,0,0.6,0.1,1,0.1
	c0.8,0.1,2,0.3,3.5,0.5c0.2,0,0.3,0,0.5,0.1c4.8,0.6,12.4,1.3,21.7,0.8c16.8-1,39-6.3,59.1-24.4l0.1-0.1v0v0
	c0.1-1.5-0.1-4.3-2.1-6.4c-0.3-0.4-0.7-0.7-1.2-1.1c-0.3-0.2-0.5-0.4-0.8-0.5c-0.3-0.2-0.6-0.3-0.8-0.5c-0.4-0.2-0.7-0.4-1-0.7
	l0-0.1c-0.1-0.2-0.3-0.4-0.4-0.6c-5.2-7.9-12.4-12.5-15.3-14.6c-1.4-1-2.2-1.4-2.2-1.4c-6.2-3.8-7.1-5-6.5-15.3
	c0.2-3.7,0.6-8.6,1-15.1c0.1-0.9,0.1-1.7,0.1-2.5c0-0.2,0-0.4,0-0.6c0-0.8,0-1.5,0-2.2l0-0.2l0-0.2c0-0.6-0.1-1.1-0.1-1.6
	c0-0.2,0-0.5-0.1-0.7c-0.1-0.6-0.1-1.1-0.2-1.6c0-0.3-0.1-0.5-0.1-0.8c-0.1-0.3-0.1-0.6-0.2-0.9c-0.1-0.3-0.1-0.6-0.2-0.8l0,0l0,0v0
	c-0.1-0.3-0.2-0.6-0.3-1c0-0.1-0.1-0.2-0.1-0.3c0-0.1-0.1-0.2-0.1-0.3l0-0.1l-0.1-0.3l0,0c-0.1-0.2-0.2-0.5-0.3-0.7l0-0.1l-0.1-0.2
	l-0.1-0.3l0-0.1v0v0c-0.2-0.4-0.4-0.9-0.6-1.3l-0.2-0.3c-0.2-0.4-0.5-0.8-0.7-1.1l-0.1-0.1l-0.1-0.2c-0.2-0.2-0.4-0.5-0.5-0.7
	l-0.2-0.3c-0.2-0.3-0.5-0.6-0.7-0.8v0l0,0l0,0l0-0.1l0-0.1l0-0.1l0-0.2l0-0.1l0-0.2l0-0.1c-0.1-0.4-0.2-1-0.4-1.6l0,0
	c0-0.2-0.1-0.3-0.1-0.5l0-0.1c0-0.2-0.1-0.4-0.1-0.5l0,0c-0.1-0.4-0.3-0.9-0.4-1.4c0-0.2-0.1-0.3-0.2-0.5c-0.1-0.3-0.2-0.7-0.4-1
	c-0.1-0.2-0.2-0.4-0.2-0.6c-0.1-0.3-0.3-0.7-0.4-1c-0.1-0.2-0.2-0.4-0.3-0.7c-0.2-0.3-0.3-0.7-0.5-1c-0.1-0.2-0.2-0.5-0.3-0.7
	c-0.2-0.3-0.4-0.7-0.6-1c-0.1-0.2-0.3-0.4-0.4-0.6c-0.2-0.4-0.5-0.7-0.7-1.1c-0.1-0.2-0.2-0.4-0.4-0.5c-0.1-0.2-0.2-0.3-0.4-0.4
	c-0.3-0.4-0.6-0.7-0.9-1.1l0,0l-0.2-0.2c-0.4-0.4-0.8-0.8-1.3-1.2l-0.1-0.1c-0.2-0.2-0.4-0.3-0.6-0.5l0,0l-0.1-0.1
	c-0.2-0.1-0.4-0.3-0.6-0.4l-0.1-0.1l0,0c-0.2-0.1-0.6-0.3-1-0.5c-0.2-0.1-0.3-0.1-0.5-0.2c-1-0.4-2.3-0.8-3.8-1.2
	c-0.1,0-0.2-0.1-0.3-0.1c-1.3-0.3-2.7-0.6-4.2-0.9c-0.5-0.1-1-0.2-1.6-0.2c-0.2,0-0.5,0-0.8-0.1c-0.1,0-0.2,0-0.3,0
	c-1.2-0.1-2.4-0.2-3.6-0.2l-0.1,0c-1.6,0-3.1,0.1-4.6,0.4c0.4-0.6,1.3-1.2,2.3-1.8c1.2-0.7,2.4-1.2,2.4-1.2
	c-0.7,0.1-1.4,0.1-2.1,0.3c-0.2,0-0.4,0.1-0.7,0.1c-0.1,0-0.3,0.1-0.4,0.1l-0.1,0c-0.1,0-0.2,0.1-0.4,0.1c-3.5,0.7-6.9,2-8.7,2.8
	c-0.3,0.1-0.5,0.2-0.7,0.3l-0.1,0c-0.2,0-0.4,0.1-0.6,0.1l0,0c1.4-2.6,3.4-3.9,5-4.7c0.3-0.1,0.5-0.2,0.8-0.3c0.1,0,0.2-0.1,0.2-0.1
	c0.2-0.1,0.4-0.1,0.6-0.2c0.4-0.1,0.6-0.2,0.6-0.2c-0.2,0-0.3,0-0.5,0c-0.1,0-0.3,0-0.4,0c-0.2,0-0.4,0-0.6,0c-0.1,0-0.2,0-0.4,0
	c-3.9,0.4-7.3,1.7-10.3,3.4c-2,1.1-3.8,2.4-5.4,3.6c-0.4,0.1-0.8,0.2-1.2,0.3c-4.2,0.9-9.1,2.1-14.1,3.6c-1.9,0.6-3.8,1.2-5.7,1.9
	c-1.5,0.5-3,1.1-4.5,1.7c-1.1,0.4-2.2,0.9-3.3,1.4c-7.8,3.5-15.5,8.1-21.9,14.3c-0.2,0.2-0.5,0.4-0.7,0.7c-0.6,0.6-1.1,1.1-1.6,1.7
	c-0.2,0.2-0.5,0.5-0.7,0.7c-0.3,0.3-0.5,0.6-0.8,0.9c-1.2,1.4-2.4,2.9-3.4,4.4c-0.8,1.1-1.6,2.3-2.3,3.6l-0.1,0.1
	c-1.5,2.6-2.8,5.3-3.8,8.3c-0.5,1.5-1,3-1.4,4.6c-0.1,0.4-0.2,0.8-0.3,1.3l-0.1,0.2c-0.4,1.7-0.7,3.5-1,5.3
	c-0.1,0.4-0.1,0.7-0.2,1.1c-0.1,0.9-0.2,1.8-0.3,2.8c-0.1,0.9-0.1,1.7-0.2,2.6l0,0.2c0,0.4,0,0.9-0.1,1.3c0,0.5,0,1,0,1.5
	c0,0.1,0,0.2,0,0.4c0,1,0,2,0.1,3l0,0.2c0,1,0.1,2.1,0.2,3.1c0,0.4,0.1,0.9,0.1,1.3c0,0.1,0,0.2,0,0.3c0,0.2,0.1,0.5,0.1,0.7
	c0.1,1.2,0.3,2.3,0.5,3.5c0,0.3,0.1,0.7,0.1,1c0.2,1,0.4,2.1,0.6,3.2c0,0-0.2-1.4-0.1-3.4c0-0.5,0.1-1,0.1-1.5
	c0.1-1.2,0.4-2.4,0.8-3.7c0.1-0.3,0.2-0.6,0.3-1c0.1-0.1,0.1-0.3,0.2-0.4c0.2-0.6,0.5-1.2,0.9-1.8c0.1,0.4,0.2,0.8,0.2,1.3l0,0.1
	l0,0.2c0,0.3,0,0.5,0,0.8c0,0.6,0,1.4,0,2.2c0,0.8,0,1.7,0.1,2.6c0.1,3.8,0.4,8.4,1.3,12.3c0,0,0.2-7.1,1.4-7.9
	c0,0,2.1,13.2,4.1,18.2c0.3,0.6,0.5,1.2,0.8,1.5l-0.1-1.3l-0.3-7.3c0,0,0-0.3,0-0.8c1.5,3,3.1,6.1,5,9.3c0.5,0.9,1.1,1.8,1.6,2.7
	c-3.6,3.2-7,7.7-9.4,13.1c-0.4,0.9-0.7,1.7-1.1,2.7c-0.2,0.5-0.4,1-0.5,1.6c-0.1,0.2-0.1,0.3-0.2,0.5c-0.1,0.4-0.2,0.7-0.3,1.1
	c-0.1,0.2-0.1,0.4-0.2,0.6c-0.1,0.4-0.2,0.8-0.3,1.1c0,0.2-0.1,0.4-0.1,0.5c-0.1,0.5-0.2,1.1-0.3,1.7l0,0.1
	c-0.1,0.6-0.2,1.1-0.3,1.7c0,0.2,0,0.4-0.1,0.6c-0.1,0.4-0.1,0.8-0.1,1.2c0,0.2,0,0.4-0.1,0.6c0,0.4-0.1,0.8-0.1,1.2
	c0,0.2,0,0.4,0,0.6c0,0.6,0,1.2,0,1.8l0,0.1c0,0.5,0,0.9,0,1.4c0,0.5,0,1,0.1,1.4l0,0.2l0,0.1c0,0.6,0.1,1.2,0.2,1.8
	c0,0.2,0.1,0.4,0.1,0.6c0.1,0.4,0.1,0.8,0.2,1.2c0,0.2,0.1,0.5,0.1,0.7c0.1,0.4,0.1,0.7,0.2,1.1c0.1,0.2,0.1,0.5,0.2,0.7
	c0.1,0.4,0.2,0.7,0.3,1.1c0.1,0.2,0.1,0.5,0.2,0.7c0.1,0.4,0.2,0.7,0.3,1.1c0.1,0.2,0.1,0.5,0.2,0.7c0.1,0.4,0.3,0.8,0.4,1.1
	c0.1,0.2,0.2,0.5,0.2,0.7c0.2,0.4,0.3,0.8,0.5,1.3c0.1,0.2,0.1,0.4,0.2,0.6c0.5,1.2,1.1,2.5,1.7,3.7c0.1,0.2,0.2,0.4,0.3,0.5
	c0.2,0.4,0.5,0.9,0.7,1.3c0.1,0.2,0.3,0.4,0.4,0.7c0.2,0.4,0.5,0.8,0.7,1.2c0.1,0.2,0.3,0.5,0.5,0.7c0.2,0.4,0.5,0.7,0.7,1.1
	c0.2,0.2,0.3,0.5,0.5,0.7c0.3,0.4,0.5,0.7,0.8,1.1c0.2,0.2,0.4,0.5,0.5,0.7c0.3,0.4,0.6,0.8,0.9,1.1c0.2,0.2,0.4,0.5,0.6,0.7
	c0.3,0.4,0.7,0.8,1.1,1.2c0.2,0.2,0.3,0.4,0.5,0.6c0.5,0.6,1.1,1.2,1.7,1.8l0,0c0,0-0.3-0.5-0.8-1.3l0,0c-0.1-0.2-0.2-0.3-0.3-0.5
	l0-0.1c-0.1-0.2-0.2-0.4-0.3-0.6l0,0c-0.1-0.2-0.2-0.5-0.3-0.7c-0.9-2.1-1.7-4.9-1.6-8.1c0.3,0.4,0.7,0.9,1,1.3
	c0.4,0.8,0.9,1.8,1.5,2.9c0.2,0.4,0.4,0.8,0.6,1.1c0.9,1.6,1.8,3.3,2.9,5.1c1.3,2.1,2.7,4.2,4.2,6l0,0c0,0-1.7-3.6-2.3-5.9
	c-0.2-0.7-0.2-1.2-0.2-1.6c0.1,0.1,0.3,0.3,0.4,0.4c0.1,0.1,0.3,0.3,0.4,0.4c0.3,0.4,0.6,0.8,1,1.3l0.2,0.3c0.2,0.3,0.4,0.5,0.6,0.8
	l0,0c0.2,0.3,0.5,0.7,0.8,1c2.4,3.1,5.6,7,7.9,9.2c0.8,0.7,1.4,1.2,1.9,1.5l-3.3-5.9c7.4,6.1,38.2,13.8,68.4,5.2
	c3.7-1,7.3-2.3,10.9-3.9c2.2-0.9,4.3-2,6.5-3.1l0.3-0.2c1.5-0.8,3-1.7,4.4-2.6l0,0c1.1-0.7,2.2-1.4,3.3-2.2c1.8-1.3,3.6-2.6,5.3-4.1
	l0,0l0,0c0.1-0.1,0.2-0.2,0.3-0.3c1.7-1.5,3.3-3.1,4.9-4.6c2-2.1,3.8-4.2,5.4-6.4l0.1-0.2c0.4-0.5,0.8-1.1,1.2-1.6l0.1-0.2
	c0.1-0.2,0.2-0.3,0.4-0.5c0.5-0.8,1-1.5,1.5-2.2c0.1-0.2,0.2-0.4,0.4-0.5c0.3-0.4,0.5-0.8,0.7-1.2c0.2-0.3,0.4-0.6,0.5-0.9
	c0.2-0.3,0.4-0.7,0.6-1c0.3-0.6,0.7-1.2,1-1.8c0.1-0.2,0.2-0.5,0.4-0.7c0.2-0.5,0.5-0.9,0.7-1.4c0.1-0.2,0.2-0.4,0.3-0.6l0.1-0.2
	c0.3-0.6,0.5-1.1,0.8-1.7l0-0.1c1-0.9,1.7-1.8,2.3-2.6c0.1-0.1,0.2-0.2,0.3-0.4C268.2,218.4,268.6,216.6,268.6,215.1z"/>
<path class="st2" d="M87.9,193.2c0-0.1-0.1-0.3-0.1-0.4l0,0c-0.4-1.9-0.6-3.9-0.8-6c0-0.1,0-0.3,0-0.4c-0.3,0.1-0.7,0.6-1.1,1.2
	c-0.1,0.2-0.3,0.5-0.4,0.7c-1,1.9-1.9,4.6-1.9,4.6c0.1-0.9,0.2-1.8,0.3-2.7c0-0.1,0-0.2,0-0.3c0.1-0.9,0.2-1.9,0.4-2.8
	c0-0.1,0-0.2,0.1-0.3c0.2-1.1,0.3-2.1,0.5-3.2c0-0.1,0-0.3,0.1-0.4l0-0.1c0-0.1,0-0.2,0.1-0.4c0-0.2,0.1-0.4,0.1-0.5
	c0.1-0.8,0.3-1.6,0.4-2.3c0.1-0.7,0.3-1.3,0.4-1.9l0-0.2c0-0.1,0-0.2,0.1-0.3c0-0.1,0-0.2,0.1-0.3l0,0c0-0.1,0.1-0.3,0.1-0.4l0,0
	c0-0.1,0.1-0.3,0.1-0.4c0-0.2,0.1-0.4,0.1-0.6l0-0.1c0-0.2,0.1-0.3,0.1-0.5c0-0.2,0.1-0.4,0.1-0.6l0,0l0,0c0-0.1,0-0.2,0.1-0.3l0,0
	c0-0.1,0-0.2,0.1-0.3c0-0.2,0.1-0.4,0.1-0.5l0-0.1l0,0l0-0.1l0-0.1l0,0l0,0l-0.2,0.2c-0.2,0.2-0.4,0.3-0.5,0.5l-0.2,0.2
	c-0.2,0.2-0.4,0.5-0.6,0.7l-0.1,0.1c-0.2,0.3-0.4,0.6-0.6,1v0l0,0l0,0l-0.1,0.1c0,0.1-0.1,0.2-0.1,0.2c-0.1,0.2-0.2,0.4-0.3,0.6l0,0
	l0,0l0,0l0,0.1l0,0.1c-0.2,0.3-0.3,0.7-0.4,1c-0.4,0.9-0.7,1.8-0.9,2.5c-0.1,0.3-0.2,0.5-0.2,0.7c-0.1,0.5-0.2,0.8-0.3,1l0,0l0,0.1
	v0v0l0-0.1c0-0.3,0-0.6,0.1-0.8c0-0.6,0.1-1.2,0.1-1.8c0.1-0.5,0.1-1,0.2-1.5c0-0.2,0-0.3,0.1-0.5c0-0.2,0.1-0.5,0.1-0.7
	c0-0.2,0.1-0.4,0.1-0.6l0,0v0l0-0.2l0-0.1c0-0.3,0.1-0.5,0.1-0.8c0-0.1,0-0.2,0.1-0.3l0-0.2l0,0c0-0.1,0-0.2,0.1-0.2
	c0-0.1,0-0.2,0.1-0.3c0.1-0.4,0.2-0.7,0.3-1.1l0-0.1c0.1-0.3,0.1-0.5,0.2-0.8l0,0l0,0l0-0.1c0.1-0.6,0.3-1.1,0.5-1.6l0-0.1l0-0.1
	c0-0.1,0.1-0.2,0.1-0.3c0.3-0.9,0.5-1.7,0.8-2.6l0-0.1c0.3-0.7,0.5-1.4,0.8-2.1l0-0.1c0.1-0.3,0.2-0.6,0.4-0.9l0,0
	c0.2-0.5,0.4-0.9,0.6-1.3l0,0v0l0,0l0-0.1c0.1-0.1,0.2-0.4,0.3-0.8l0,0l0-0.1v0c0.1-0.2,0.1-0.3,0.2-0.5c0.1-0.3,0.2-0.5,0.3-0.7
	l0.1-0.2l0,0l1.9-3.4c0.1-0.1,0.2-0.3,0.2-0.4l0-0.1l0.1-0.2c0.2-0.4,0.4-0.8,0.6-1.1c0.3-0.6,0.6-1.1,0.9-1.6c0.6-1,1-1.9,1.3-2.4
	c0.2-0.3,0.3-0.5,0.3-0.5l0,0h0l0,0l0,0c-0.1-0.1-0.7-0.5-1.6-1c-1.1-0.7-2.7-1.6-4.6-2.4c-0.6-0.3-1.3-0.6-2-0.9
	c-0.8-0.3-1.7-0.7-2.6-1c-0.2-0.1-0.5-0.1-0.7-0.2c-0.7-0.2-1.5-0.4-2.3-0.6l0,0c-0.5-0.1-1.1-0.3-1.6-0.4c-0.4-0.1-0.9-0.2-1.3-0.2
	c-0.2,0-0.4,0-0.6-0.1c-0.2,0-0.4,0-0.6-0.1c-0.6-0.1-1.2-0.1-1.8-0.1c-0.3,0-0.6,0-0.9,0c-1.3,0-2.6,0.1-3.8,0.3l-0.2,0
	c-2.3,0.3-4.4,0.9-6.5,1.7c-0.7,0.3-1.4,0.6-2.1,0.9c-0.2,0.1-0.4,0.2-0.6,0.3c-0.2,0.1-0.5,0.2-0.7,0.3c-2.1,1.1-4,2.3-5.7,3.8
	l-0.1,0.1c-1.5,1.3-2.9,2.7-4.2,4.2c-0.4,0.4-0.7,0.9-1,1.3c-0.4,0.5-0.8,1.1-1.2,1.6c-0.7,1.1-1.3,2.2-1.9,3.3
	c-0.2,0.4-0.4,0.8-0.6,1.2c0,0.1-0.1,0.2-0.1,0.2c-1.2,2.7-2,5.5-2.4,8.5c-0.1,0.6-0.1,1.2-0.2,1.8l0,0.2c0,0.5-0.1,0.9-0.1,1.4
	c0,0.6,0,1.2,0,1.8c0,0.1,0,0.2,0,0.3c0,0.5,0,0.9,0.1,1.4l0,0.2c0,0.1,0,0.2,0,0.3c0,0.4,0.1,0.7,0.1,1.1l0,0.1l0,0l0,0
	c0,0.2,0.1,0.4,0.1,0.5c0,0.3,0.1,0.6,0.1,1c0,0.2,0.1,0.5,0.1,0.7c0.1,0.3,0.1,0.6,0.2,0.9c0.1,0.2,0.1,0.5,0.2,0.7l0,0.2l0.1,0.2
	l0,0.2l0.1,0.2c0.1,0.2,0.1,0.5,0.2,0.7c0.1,0.3,0.2,0.5,0.2,0.8c0.1,0.2,0.2,0.5,0.3,0.7l0.1,0.2c0.1,0.2,0.1,0.4,0.2,0.5
	c0.1,0.3,0.2,0.5,0.3,0.7c0.1,0.2,0.2,0.5,0.3,0.7c0.1,0.1,0.1,0.3,0.2,0.4c0.1,0.1,0.1,0.3,0.2,0.4c0.1,0.2,0.2,0.4,0.3,0.6
	c0.1,0.3,0.3,0.5,0.4,0.8c0.1,0.2,0.2,0.4,0.3,0.6c0.1,0.3,0.3,0.5,0.5,0.8c0.1,0.2,0.2,0.4,0.3,0.5c0.2,0.3,0.3,0.5,0.5,0.8
	c0.1,0.2,0.2,0.3,0.3,0.5c0.2,0.3,0.4,0.5,0.6,0.8c0.1,0.2,0.2,0.3,0.3,0.5c0.2,0.3,0.4,0.5,0.6,0.8c0.1,0.1,0.2,0.3,0.3,0.4
	c0.2,0.3,0.4,0.5,0.7,0.8c0.1,0.1,0.2,0.2,0.3,0.4c0.2,0.3,0.5,0.5,0.7,0.8c0.1,0.1,0.2,0.2,0.3,0.3c0.3,0.3,0.5,0.5,0.8,0.8
	c0.1,0.1,0.2,0.2,0.3,0.3c0.3,0.3,0.6,0.5,0.9,0.7c0.1,0.1,0.2,0.2,0.3,0.2c0.3,0.2,0.6,0.5,0.9,0.7c0.1,0.1,0.2,0.1,0.3,0.2
	c0.3,0.2,0.7,0.5,1,0.7l0.2,0.2c0.3,0.2,0.7,0.5,1,0.7l0.2,0.1c0.4,0.2,0.7,0.4,1.1,0.6l0.2,0.1c0.4,0.2,0.8,0.4,1.2,0.6l0.2,0.1
	c0.4,0.2,0.8,0.4,1.2,0.6l0.1,0.1c0.4,0.2,0.9,0.3,1.3,0.5l0.1,0c0.4,0.2,0.9,0.3,1.3,0.5l0.1,0c0.2,0.1,0.4,0.1,0.7,0.2
	c0.2,0.1,0.5,0.1,0.7,0.2l0.1,0c0.5,0.1,1,0.2,1.5,0.3l0,0c0,0,0,0,0,0c0.5,0.1,1,0.2,1.5,0.3l0,0c1.5,0.2,3.1,0.4,4.7,0.4l0,0
	c0.4,0,0.8,0,1.2,0c0.5,0,1,0,1.6-0.1c0.7-0.1,1.5-0.1,2.2-0.3c0.7-0.1,1.3-0.2,2-0.3c1-0.2,2-0.5,3-0.7c2.9-0.8,5.4-2,7-3.1
	c0,0-1-4.4-1.9-9C88,194.2,87.9,193.7,87.9,193.2z"/>
<polygon class="st2" points="219.4,86.5 219.4,86.5 219.4,86.5 "/>
<path class="st3" d="M160,26.3l-0.4-4.5l2.3-5l0,0l0.9-0.2c-1.5-0.7-3.2-1.2-5.3-1.4c-4.1-0.5-9.2,0-15.1,1.5
	c-5.9,1.5-12.5,4-19.5,7.5c-14,7-29.6,17.7-44.5,31.4c-5.2,4.8-10.1,9.6-14.6,14.5c-4.4,4.7-8.3,9.5-11.9,14.2
	c-7.3,9.5-12.8,18.8-16.4,27c-2.4,5.5-3.8,10.6-4.4,14.9c-0.4,3.1-0.3,5.9,0.2,8.2c0.2,0.7,0.4,1.4,0.7,2c0.5,1.3,1.2,2.5,2.1,3.5
	l9.1,9.5l1,1l0.1-0.1c0.3-0.3,0.6-0.6,0.8-1l0.1-0.1c0.1-0.1,0.2-0.2,0.3-0.3c0.3-0.3,0.5-0.6,0.8-0.8c0.2-0.2,0.4-0.3,0.5-0.5
	c0.2-0.2,0.3-0.3,0.5-0.5c0.1-0.1,0.2-0.1,0.2-0.2c0.2-0.2,0.4-0.3,0.6-0.5c0.3-0.2,0.5-0.5,0.8-0.7c0.2-0.1,0.3-0.3,0.5-0.4
	l0.1-0.1c0.3-0.2,0.6-0.4,0.9-0.7c0.2-0.1,0.4-0.3,0.6-0.4c0.3-0.2,0.6-0.4,0.9-0.6c0.2-0.1,0.4-0.2,0.6-0.4c0.3-0.2,0.6-0.4,1-0.6
	c0.2-0.1,0.4-0.2,0.6-0.3c0.3-0.2,0.7-0.4,1-0.6c0.2-0.1,0.4-0.2,0.5-0.3l0.2-0.1l0,0c2.2-6,5.4-12.5,9.6-19.3
	c5.2-8.3,11.8-17.1,19.6-25.8c4.9-5.5,10.4-11,16.2-16.3c7.6-6.9,15.3-13.1,22.9-18.4c5.1-3.6,10.2-6.8,15.2-9.6
	c0.5-0.3,0.9-0.5,1.4-0.8c1.3-0.7,2.6-1.4,3.9-2.1c2.8-1.5,5.6-2.8,8.3-4l-1.3-1.6l-0.2-0.3l-1.6-2l-9.4-11.3l0.1-8.1l-0.1-0.1
	l6.6-2L160,26.3z"/>
<path class="st4" d="M268.6,215.1L268.6,215.1c0,0,0.2-1.7-0.7-3.2l0,0c-0.1-0.1-0.1-0.2-0.2-0.3l-0.1-0.1c-0.1-0.1-0.2-0.3-0.3-0.4
	c-0.2-0.2-0.5-0.5-0.8-0.6c-0.2-0.1-0.3-0.2-0.5-0.3c-0.5-0.2-1.1-0.4-1.9-0.5c-0.5-0.1-1.1-0.1-1.8-0.1c-0.3,0-0.5,0-0.8,0l-0.1,0
	c0,0,0,0.1,0,0.2c0,0.1,0.1,0.3,0.1,0.5c0,0.1,0,0.2,0.1,0.3c0.1,0.4,0.2,0.9,0.3,1.4c0,0,0,0.1-0.1,0.3l0,0.1
	c-0.3,0.8-1.2,2.6-3.3,4.9c-0.3,0.4-0.7,0.8-1.1,1.2c-5.6,5.8-17.8,14.1-43.4,18.7c-8.7,1.2-16.7,1.3-23.5,0.4
	c-10.1-1.3-17.7-4.5-21.2-8.8c-0.3-0.4-0.6-0.8-0.9-1.1c-0.2-0.3-0.4-0.6-0.6-0.9c-0.1-0.1-0.1-0.2-0.2-0.3
	c-1.5-2.7-2.2-5.6-2.1-8.4c0-3.4,1.1-6.7,2.9-9.2c1.5-2,3.4-3.6,5.7-4.3c1.1-0.3,2.3-0.5,3.6-0.4c0.3,0,0.6,0.1,1,0.1
	c0.8,0.1,2,0.3,3.5,0.5c0.2,0,0.3,0,0.5,0.1c4.8,0.6,12.4,1.3,21.7,0.8c16.8-1,39-6.3,59.1-24.4l0.1-0.1v0v0
	c0.1-1.5-0.1-4.3-2.1-6.4c-0.3-0.4-0.7-0.7-1.2-1.1c-0.3-0.2-0.5-0.4-0.8-0.5c-0.3-0.2-0.6-0.3-0.8-0.5c-0.4-0.2-0.7-0.4-1-0.7
	l0-0.1c-0.1-0.2-0.3-0.4-0.4-0.6c-5.2-7.9-12.4-12.5-15.3-14.6c-1.4-1-2.2-1.4-2.2-1.4c-6.2-3.8-7.1-5-6.5-15.3
	c0.2-3.7,0.6-8.6,1-15.1c0.1-0.9,0.1-1.7,0.1-2.5c0-0.2,0-0.4,0-0.6c0-0.8,0-1.5,0-2.2l0-0.2l0-0.2c0-0.6-0.1-1.1-0.1-1.6
	c0-0.2,0-0.5-0.1-0.7c-0.1-0.6-0.1-1.1-0.2-1.6c0-0.3-0.1-0.5-0.1-0.8c-0.1-0.3-0.1-0.6-0.2-0.9c-0.1-0.3-0.1-0.6-0.2-0.8l0,0l0,0v0
	c-0.1-0.3-0.2-0.6-0.3-1c0-0.1-0.1-0.2-0.1-0.3c0-0.1-0.1-0.2-0.1-0.3l0-0.1l-0.1-0.3l0,0c-0.1-0.2-0.2-0.5-0.3-0.7l0-0.1l-0.1-0.2
	l-0.1-0.3l0-0.1v0v0c-0.2-0.4-0.4-0.9-0.6-1.3l-0.2-0.3c-0.2-0.4-0.5-0.8-0.7-1.1l-0.1-0.1l-0.1-0.2c-0.2-0.2-0.4-0.5-0.5-0.7
	l-0.2-0.3c-0.2-0.3-0.5-0.6-0.7-0.8l0,0c-0.3-0.3-0.6-0.6-0.9-0.9c-0.3-0.2-0.7-0.4-1-0.6c-0.1-0.1-0.2-0.1-0.3-0.1
	c-0.2-0.1-0.4-0.2-0.7-0.3c-0.1,0-0.3-0.1-0.4-0.1c-0.2-0.1-0.4-0.1-0.6-0.2c-0.1,0-0.3-0.1-0.4-0.1c-0.2,0-0.4-0.1-0.6-0.1
	c-0.1,0-0.3,0-0.4,0c-0.2,0-0.4,0-0.6,0c-0.1,0-0.3,0-0.4,0c-0.2,0-0.4,0-0.6,0c-0.1,0-0.2,0-0.4,0l-0.3,0c-0.1,0-0.2,0-0.4,0.1
	c-0.1,0-0.2,0-0.3,0.1c-0.2,0.1-0.5,0.1-0.7,0.2l-0.2,0.1c-0.6,0.2-1.3,0.4-1.9,0.7l-0.2,0.1c-0.2,0.1-0.5,0.2-0.7,0.4l-0.3,0.2
	c-0.2,0.1-0.4,0.2-0.7,0.4l-0.3,0.2c-0.2,0.1-0.4,0.3-0.7,0.4l-0.3,0.2c-0.2,0.1-0.5,0.3-0.7,0.4l-0.3,0.2c-0.3,0.2-0.5,0.3-0.8,0.5
	l-0.2,0.1c-0.3,0.2-0.6,0.4-0.9,0.6l0,0l0,0h0c-0.6,0.4-1.1,0.8-1.7,1.2c-0.5,0.3-0.9,0.7-1.4,1l-0.2,0.2c-0.5,0.3-1,0.6-1.5,1
	l-0.2,0.2c-0.5,0.3-1,0.6-1.5,0.9l-0.3,0.1c-0.5,0.3-1,0.5-1.5,0.8l-0.3,0.1c-0.5,0.2-1,0.5-1.6,0.7l-0.2,0.1
	c-0.6,0.2-1.1,0.4-1.7,0.5l-0.1,0c-0.6,0.2-1.2,0.3-1.8,0.4c-1,0.1-2.1,0.2-3.1,0.2c-1.7,0-3.4-0.1-5.1-0.4
	c-0.6-0.1-1.1-0.2-1.7-0.3c-0.2,0-0.4-0.1-0.6-0.1c-1.5-0.3-3-0.6-4.5-1c-0.6-0.2-1.3-0.3-1.9-0.5c-1-0.3-2.1-0.5-3.1-0.7
	c-0.2,0-0.4-0.1-0.6-0.1l0,0c-0.1,0-0.3-0.1-0.4-0.1c-0.2-0.1-0.5-0.1-0.7-0.2c-0.2,0-0.4-0.1-0.7-0.1l-0.1,0l-0.1,0
	c-0.2,0-0.4-0.1-0.6-0.1c-0.5-0.1-0.9-0.2-1.4-0.3c-0.1,0-0.3,0-0.4-0.1c-0.4-0.1-0.7-0.1-1.1-0.2c-0.2,0-0.4,0-0.5-0.1l0,0
	c-0.3,0-0.6-0.1-0.9-0.1c-0.2,0-0.4,0-0.6-0.1c-0.1,0-0.2,0-0.3,0c-0.2,0-0.4,0-0.6,0c-0.2,0-0.4,0-0.6,0c-0.3,0-0.6,0-1,0
	c-0.1,0-0.2,0-0.3,0c-0.1,0-0.2,0-0.3,0c-0.4,0-0.8,0-1.2,0c-0.1,0-0.2,0-0.3,0c-0.5,0-1,0.1-1.5,0.1c-0.1,0-0.3,0-0.4,0
	c-0.3,0-0.7,0.1-1,0.1l-0.2,0c-0.2,0-0.4,0.1-0.6,0.1c-0.3,0.1-0.7,0.1-1,0.2c-0.2,0-0.4,0.1-0.6,0.1c-0.3,0.1-0.7,0.2-1,0.3
	c-0.2,0.1-0.4,0.1-0.6,0.2c-0.4,0.1-0.7,0.2-1.1,0.4c-0.2,0.1-0.3,0.1-0.5,0.2c-0.5,0.2-1.1,0.4-1.6,0.7c-4.3,2.5-7.9,5.8-10.8,9.7
	c-1,1.3-1.9,2.7-2.7,4.1c-0.8,1.5-1.6,3-2.2,4.6c-0.2,0.5-0.4,0.9-0.5,1.4c-0.3,0.8-0.5,1.6-0.8,2.4c0,0.1,0,0.2-0.1,0.3
	c-0.3,0.9-0.5,1.8-0.6,2.8c-0.2,1-0.3,1.9-0.4,2.9c-0.1,0.5-0.1,1.1-0.1,1.6c-0.1,1.4-0.1,2.9,0,4.3c0,0.1,0,0.3,0,0.4
	c0,0.4,0,0.7,0.1,1.1c0.1,1,0.3,2,0.5,3c0.1,0.4,0.2,0.7,0.3,1.1c0.1,0.3,0.2,0.7,0.3,1v0c0.7,2.6,1.7,4.9,3,7
	c4.6,8,12.3,12.8,17.8,15.4c2.2,0.9,4.4,1.8,6.7,2.5c0,0-0.1,0.1-0.3,0.2c-0.4,0.1-0.9,0.2-1.4,0.4c-0.8,0.2-1.7,0.5-2.8,0.9
	c-1.2,0.4-2.4,0.9-3.8,1.4c-3.6,1.5-7.7,3.6-11.3,6.5c-0.5,0.4-0.9,0.7-1.3,1.1c-0.7,0.7-1.4,1.4-2.1,2.1c-0.1,0.1-0.2,0.2-0.2,0.3
	c-0.1,0.1-0.2,0.2-0.3,0.3c-0.3,0.3-0.5,0.6-0.8,0.9c-0.1,0.1-0.2,0.3-0.3,0.4c-0.3,0.4-0.6,0.9-0.9,1.3c-0.3,0.4-0.6,0.9-0.8,1.4
	c-2.1,3.7-3.4,8.2-3,13.5l0-0.1l0,0c0,0,0-0.1,0-0.2l0,0c0-0.1,0-0.2,0.1-0.3l0-0.1c0-0.1,0.1-0.3,0.1-0.4l0-0.1
	c0-0.2,0.1-0.3,0.1-0.5l0,0c0.1-0.2,0.1-0.4,0.2-0.6l0-0.1c0.1-0.2,0.1-0.4,0.2-0.7l0-0.1c0.1-0.2,0.2-0.4,0.3-0.7l0-0.1
	c0.1-0.2,0.2-0.5,0.3-0.8l0.1-0.2c0.1-0.3,0.3-0.5,0.4-0.8v0c0,0,0,0,0,0c0.2-0.4,0.4-0.8,0.7-1.2c0.1-0.2,0.2-0.3,0.3-0.5l0.1-0.1
	l0,0c0.2-0.3,0.4-0.6,0.7-1c0.2-0.3,0.4-0.5,0.6-0.8c0.1-0.1,0.1-0.2,0.2-0.2c0.2-0.2,0.4-0.4,0.5-0.6c0.1-0.1,0.2-0.2,0.2-0.2
	c0.3-0.3,0.5-0.5,0.8-0.7l0,0v0v0c0,0-4.9,11-2.7,19.7c0,0,0,0,0-0.1c0,0,0,0,0-0.1c0,0,0-0.1,0-0.2c0,0,0,0,0,0c0-0.1,0-0.2,0-0.3
	c0,0,0,0,0,0c0-0.1,0-0.3,0-0.4c0,0,0,0,0,0c0-0.2,0-0.3,0-0.5c0,0,0,0,0,0c0-0.2,0-0.4,0.1-0.6c0,0,0,0,0-0.1
	c0-0.2,0.1-0.4,0.1-0.7c0,0,0,0,0-0.1c0-0.3,0.1-0.5,0.1-0.8l0-0.1l0-0.1v0c0.1-0.3,0.1-0.6,0.2-0.9c0,0,0,0,0-0.1
	c0.1-0.3,0.2-0.6,0.3-0.9c0-0.1,0.1-0.2,0.1-0.3l0.1-0.2v0c0.1-0.3,0.2-0.5,0.3-0.8l0,0l0,0c0.2-0.4,0.3-0.7,0.5-1
	c0-0.1,0.1-0.2,0.2-0.3c0.2-0.3,0.4-0.7,0.7-1l0,0v0v0h0c0,0-0.3,2.7-0.2,5.9c0,0.5,0,1,0.1,1.6c0,0.3,0,0.7,0.1,1.1
	c0.2-3.5,0.8-6.7,1.8-9.7c-0.9,3-1.6,6.3-1.8,9.8v0c-0.1,2.2-0.1,4.5,0.1,6.9c0.4,4,1.3,8.2,3,12.6c0,0-1.5-5.1,0.7-10.1
	c0.2,0.5,0.4,0.9,0.6,1.4c0.2,1.5,0.5,3.6,0.9,6c0.4,3.9,2.3,15.7,10.3,24c0,0-3-3.9-2.6-9c0.3,0.7,0.6,1.3,0.9,1.8
	c1.4,2.6,4.1,7.3,7.1,10.6c0,0-2.4-4.7-1.8-5.7c0,0,7.8,9.8,10.3,10.7l-3.3-5.4l-0.1-0.2c11.4,8.3,27,11.3,46.4,5.9
	c3.3-0.9,6.8-2.1,10.3-3.5c2.2-0.9,4.3-2,6.5-3.1l0.3-0.2c1.5-0.8,3-1.7,4.4-2.6l0,0c1.1-0.7,2.2-1.4,3.3-2.2
	c1.8-1.3,3.6-2.6,5.3-4.1l0,0l0,0c0.1-0.1,0.2-0.2,0.3-0.3c1.7-1.5,3.3-3.1,4.9-4.6c2-2.1,3.8-4.2,5.4-6.4l0.1-0.2
	c0.4-0.5,0.8-1.1,1.2-1.6l0.1-0.2c0.1-0.2,0.2-0.3,0.4-0.5c0.5-0.8,1-1.5,1.5-2.2c0.1-0.2,0.2-0.4,0.4-0.5c0.3-0.4,0.5-0.8,0.7-1.2
	c0.2-0.3,0.4-0.6,0.5-0.9c0.2-0.3,0.4-0.7,0.6-1c0.3-0.6,0.7-1.2,1-1.8c0.1-0.2,0.2-0.5,0.4-0.7c0.2-0.5,0.5-0.9,0.7-1.4
	c0.1-0.2,0.2-0.4,0.3-0.6l0.1-0.2c0.3-0.6,0.5-1.1,0.8-1.7l0-0.1c1-0.9,1.7-1.8,2.3-2.6c0.1-0.1,0.2-0.2,0.3-0.4
	C268.2,218.4,268.6,216.6,268.6,215.1z"/>
<path class="st4" d="M86.9,186.4c-0.3,0.1-0.7,0.6-1.1,1.2c-0.1,0.2-0.3,0.5-0.4,0.7c-1,1.9-1.9,4.6-1.9,4.6
	c0.1-0.9,0.2-1.8,0.3-2.7c0-0.1,0-0.2,0-0.3c0.1-0.9,0.2-1.9,0.4-2.8c0-0.1,0-0.2,0.1-0.3c0.2-1.1,0.3-2.1,0.5-3.2
	c0-0.1,0-0.3,0.1-0.4l0-0.1c0-0.1,0-0.2,0.1-0.4c0-0.2,0.1-0.4,0.1-0.5c0.1-0.8,0.3-1.6,0.4-2.3c0.1-0.7,0.3-1.3,0.4-1.9l0-0.2
	c0-0.1,0-0.2,0.1-0.3c0-0.1,0-0.2,0.1-0.3l0,0c0-0.1,0.1-0.3,0.1-0.4l0,0c0-0.1,0.1-0.3,0.1-0.4c0-0.2,0.1-0.4,0.1-0.6l0-0.1
	c0-0.2,0.1-0.3,0.1-0.5c0-0.2,0.1-0.4,0.1-0.6l0,0l0,0c0-0.1,0-0.2,0.1-0.3l0,0c0-0.1,0-0.2,0.1-0.3c0-0.2,0.1-0.4,0.1-0.5l0-0.1
	l0,0l0-0.1l0-0.1l0,0l0,0l-0.2,0.2c-0.2,0.2-0.4,0.3-0.5,0.5l-0.2,0.2c-0.2,0.2-0.4,0.5-0.6,0.7l-0.1,0.1c-0.2,0.3-0.4,0.6-0.6,1v0
	l0,0l0,0l-0.1,0.1c0,0.1-0.1,0.2-0.1,0.2c-0.1,0.2-0.2,0.4-0.3,0.6l0,0l0,0l0,0l0,0.1l0,0.1c-0.2,0.3-0.3,0.7-0.4,1
	c-0.4,0.9-0.7,1.8-0.9,2.5c-0.1,0.3-0.2,0.5-0.2,0.7c-0.1,0.5-0.2,0.8-0.3,1l0,0l0,0.1v0v0l0-0.1c0-0.3,0-0.6,0.1-0.8
	c0-0.6,0.1-1.2,0.1-1.8c0.1-0.5,0.1-1,0.2-1.5c0-0.2,0-0.3,0.1-0.5c0-0.2,0.1-0.5,0.1-0.7c0-0.2,0.1-0.4,0.1-0.6l0,0v0l0-0.2l0-0.1
	c0-0.3,0.1-0.5,0.1-0.8c0-0.1,0-0.2,0.1-0.3l0-0.2l0,0c0-0.1,0-0.2,0.1-0.2c0-0.1,0-0.2,0.1-0.3c0.1-0.4,0.2-0.7,0.3-1.1l0-0.1
	c0.1-0.3,0.1-0.5,0.2-0.8l0,0l0,0l0-0.1c0.1-0.6,0.3-1.1,0.5-1.6l0-0.1l0-0.1c0-0.1,0.1-0.2,0.1-0.3c0.3-0.9,0.5-1.7,0.8-2.6l0-0.1
	c0.3-0.7,0.5-1.4,0.8-2.1l0-0.1c0.1-0.3,0.2-0.6,0.4-0.9l0,0c0.2-0.5,0.4-0.9,0.6-1.3l0,0v0l0,0l0-0.1c0.1-0.1,0.2-0.4,0.3-0.8l0,0
	l0-0.1v0c0.1-0.2,0.1-0.3,0.2-0.5c0.1-0.3,0.2-0.5,0.3-0.7l0.1-0.2c-0.2-0.1-0.3-0.2-0.5-0.2l-0.1,0l-0.2-0.1
	c-1.1-0.5-2.2-0.9-3.3-1.2l-0.2,0c-0.7-0.2-1.5-0.3-2.3-0.4l0,0c-0.4-0.1-0.9-0.1-1.3-0.1c-0.4,0-0.8,0-1.1,0
	c-0.6,0-1.1,0.1-1.7,0.1c-0.2,0-0.3,0.1-0.5,0.1c-0.3,0-0.5,0.1-0.8,0.1c-0.1,0-0.2,0-0.3,0.1c-0.2,0-0.4,0.1-0.6,0.1
	c-0.4,0.1-0.7,0.2-1.1,0.3c-0.2,0.1-0.3,0.1-0.5,0.2c-0.5,0.2-1,0.4-1.4,0.6c-0.2,0.1-0.4,0.2-0.5,0.3c-0.2,0.1-0.4,0.2-0.6,0.3
	l-0.2,0.1c-0.2,0.1-0.5,0.3-0.7,0.4c-0.2,0.1-0.4,0.3-0.6,0.4c-0.2,0.2-0.5,0.3-0.7,0.5c-0.1,0.1-0.3,0.2-0.4,0.3
	c-0.4,0.3-0.7,0.6-1.1,1c-0.2,0.2-0.4,0.3-0.5,0.5c-0.3,0.3-0.6,0.6-0.9,1l-0.1,0.2c-0.2,0.2-0.3,0.4-0.4,0.6l0,0l0,0
	c-0.1,0.1-0.2,0.2-0.3,0.4l0,0.1l0,0.1l0,0l0,0c-0.6,0.8-1.1,1.7-1.5,2.6c-0.1,0.1-0.1,0.3-0.2,0.4c-0.2,0.4-0.4,0.9-0.6,1.3
	c-0.1,0.2-0.1,0.4-0.2,0.5l0,0v0l0,0c-0.2,0.5-0.3,0.9-0.4,1.4l0,0.2l0,0.2l0,0c-0.1,0.4-0.2,0.7-0.2,1.1c0,0.2,0,0.4-0.1,0.5l0,0.1
	c0,0.2,0,0.4-0.1,0.6c0,0.1,0,0.3,0,0.4c0,0.6-0.1,1.1,0,1.7c0,0.4,0.1,0.9,0.1,1.3l0,0l0,0.2c0,0.2,0.1,0.5,0.1,0.7
	c0.1,0.9,0.3,1.7,0.6,2.5c0.2,0.6,0.4,1.2,0.7,1.8c0.5,1.1,1,2.1,1.7,3.1c1.4,2,3.2,3.8,5.2,5.1c1.2,0.8,2.5,1.4,3.8,1.8
	c1.3,0.5,2.6,0.8,4,0.9c0.3,0,0.6,0.1,1,0.1c0.5,0,1,0.1,1.4,0c0.4,0,0.9-0.1,1.3-0.1c0.3,0,0.5,0,0.8-0.1c0.6-0.1,1.3-0.2,1.9-0.4
	l0.1,0c0.3-0.1,0.5-0.2,0.7-0.2c0.8-0.2,1.5-0.5,2.2-0.9l0.2-0.1c0.2-0.1,0.4-0.2,0.6-0.3l0,0c-0.4-1.9-0.6-3.9-0.8-6
	C87,186.7,87,186.5,86.9,186.4z"/>
<polygon class="st5" points="41.7,198.2 41.7,198.2 41.7,198.2 41.7,198.2 41.7,198.3 "/>
<polygon class="st6" points="162.8,27.7 163.1,27.9 163.1,27.9 "/>
<path class="st7" d="M261.7,210.5c0-0.1,0-0.2-0.1-0.3c-0.1-0.2-0.1-0.4-0.1-0.5c-0.6-1.8-1.2-3.2-1.9-4.2c-0.8-1.3-1.5-1.9-1.5-1.9
	c0.1-0.5,0.2-0.9,0.3-1.3c0.1-0.6,0.2-1.1,0.3-1.7c0.5-4.1-0.6-7.2-1.5-9c-0.1-0.3-0.3-0.5-0.4-0.7c-0.6,0.4-1.3,0.9-1.9,1.3
	c-12.1,8.2-25.7,13.4-40.4,15.7c-10.1,1.6-20.8,1.7-31.9,0.3l0.2,0.1c0,0-6.7,0.9-8.5,7.3l0.1,0.1L174,220c0.2,5.8,2.9,9.5,5.9,11.4
	c3.2,1.2,7,2.1,11.2,2.6c7.4,0.9,15.8,0.7,24.4-0.7l0,0l0,0c11.5-1.5,27.6-7.7,39.2-15.6c2.6-1.8,5-3.7,7.1-5.6l0.1-0.1l0.1-0.1
	C261.9,211.4,261.8,210.9,261.7,210.5z"/>
<path class="st8" d="M239.8,155c-6.2-3.8-7.1-5-6.5-15.3c0.2-3.7,0.6-8.6,1-15.1c0.1-0.9,0.1-1.7,0.1-2.5c0-0.2,0-0.4,0-0.6
	c0-0.8,0-1.5,0-2.2l0-0.2l0-0.2c0-0.6-0.1-1.1-0.1-1.6c0-0.2,0-0.5-0.1-0.7c-0.1-0.6-0.1-1.1-0.2-1.6c0-0.3-0.1-0.5-0.1-0.8
	c-0.1-0.3-0.1-0.6-0.2-0.9c-0.1-0.3-0.1-0.6-0.2-0.8l0,0l0,0c-0.9-1.3-1.9-2.5-3.2-3.5l-0.2-0.2l0,0l-0.2-0.1l-0.1,0
	c-0.2-0.1-0.4-0.3-0.5-0.4c-0.2-0.1-0.4-0.3-0.6-0.4c-1.8-1.1-3.9-1.8-6.1-2.1c-1.2-0.2-2.5-0.2-3.7-0.2c-0.6,0-1.2,0.1-1.8,0.1
	c-1.6,0.2-3.2,0.5-4.8,1c-0.6,0.4-1.1,0.8-1.7,1.2c-0.5,0.3-0.9,0.7-1.4,1l-0.2,0.2c-0.5,0.3-1,0.6-1.5,1l-0.2,0.2
	c-0.5,0.3-1,0.6-1.5,0.9l-0.3,0.1c-0.5,0.3-1,0.5-1.5,0.8l-0.3,0.1c-0.5,0.2-1,0.5-1.6,0.7l-0.2,0.1c-0.6,0.2-1.1,0.4-1.7,0.5
	l-0.1,0c-0.6,0.2-1.2,0.3-1.8,0.4c-1,0.1-2.1,0.2-3.1,0.2c-1.7,0-3.4-0.1-5.1-0.4c-0.6-0.1-1.1-0.2-1.7-0.3c-0.2,0-0.4-0.1-0.6-0.1
	c-1.5-0.3-3-0.6-4.5-1c-0.6-0.2-1.3-0.3-1.9-0.5c-1-0.3-2.1-0.5-3.1-0.7c-0.2,0-0.4-0.1-0.6-0.1c-0.9,0-1.7,0.1-2.6,0.2l-0.2,0
	c-2.5,0.3-5.1,0.9-7.6,1.8c-0.1,0-0.3,0.1-0.4,0.1c-0.4,0.1-0.8,0.3-1.2,0.4c-0.5,0.2-1.1,0.4-1.6,0.7c-3.7,1.6-7.2,3.8-10.5,6.6
	c-1.3,1.1-2.6,2.3-3.8,3.6c-1.8,1.9-3.4,4-4.8,6.1c-0.1,0.1-0.2,0.2-0.2,0.4c-0.7,1.2-1.4,2.3-2,3.5c-0.2,0.4-0.4,0.9-0.7,1.3l0,0.1
	c-0.7,1.4-1.2,2.8-1.7,4.3c0,0.1-0.1,0.2-0.1,0.3c-0.1,0.2-0.1,0.4-0.2,0.6c-0.2,0.7-0.4,1.3-0.6,2c-0.2,0.7-0.4,1.4-0.5,2.1
	c0,0.2-0.1,0.3-0.1,0.5c-0.1,0.4-0.2,0.9-0.2,1.3c-0.2,1.6-0.4,3.2-0.4,4.7c0,0.4,0,0.8,0,1.2c0.7,2.6,1.7,4.9,3,7
	c4.6,8,12.3,12.8,17.8,15.4c2.2,0.9,4.4,1.8,6.7,2.5l0.1,0.1l0,0l0,0l0.2-0.1c0.3-0.2,0.6-0.5,0.9-0.7c0.1-0.1,0.2-0.2,0.3-0.2
	c0.3-0.2,0.6-0.5,1-0.7c0.1-0.1,0.2-0.2,0.3-0.2c0.3-0.2,0.7-0.5,1-0.7c0.1-0.1,0.2-0.2,0.3-0.2c0.3-0.2,0.7-0.5,1.1-0.7
	c0.1-0.1,0.2-0.2,0.4-0.2c0.4-0.2,0.7-0.5,1.1-0.7c0.1-0.1,0.3-0.2,0.4-0.2c0.4-0.2,0.8-0.4,1.2-0.7c0.1-0.1,0.3-0.2,0.4-0.2
	c0.4-0.2,0.8-0.4,1.2-0.6c0.2-0.1,0.3-0.2,0.5-0.3c0.4-0.2,0.8-0.4,1.2-0.6c0.2-0.1,0.3-0.2,0.5-0.3c0.4-0.2,0.8-0.4,1.2-0.6
	c0.2-0.1,0.4-0.2,0.6-0.3c0.4-0.2,0.8-0.4,1.2-0.6c0.2-0.1,0.4-0.2,0.7-0.3c0.4-0.2,0.8-0.4,1.2-0.5c0.2-0.1,0.5-0.2,0.7-0.3
	c0.4-0.2,0.8-0.3,1.2-0.5c0.3-0.1,0.6-0.2,0.8-0.3c0.4-0.2,0.8-0.3,1.2-0.5c0.3-0.1,0.6-0.2,0.9-0.3c0.4-0.1,0.8-0.3,1.2-0.4
	c0.3-0.1,0.7-0.2,1-0.4c0.4-0.1,0.8-0.3,1.2-0.4c0.4-0.1,0.8-0.2,1.1-0.4c0.4-0.1,0.8-0.2,1.1-0.4c0.4-0.1,0.8-0.3,1.3-0.4
	c0.4-0.1,0.7-0.2,1.1-0.3c0.5-0.1,0.9-0.3,1.4-0.4c0.2-0.1,0.5-0.1,0.7-0.2c1.8-4.6,7.3-16.1,16.6-17.3c1-0.1,1.9-0.2,2.8-0.2
	c0.2,0,0.4,0,0.6,0c-0.1-0.7-0.2-1.4-0.2-2.1c-0.3-4.9,1.2-9,3.4-9.2c1.7-0.1,3,2.3,3.2,3.2c0.6,1.5,1.1,3.4,1.2,5.5
	c0.1,1.9-0.1,3.7-0.4,5.2c0.2,0.2,0.3,0.4,0.5,0.6c2.1,2.7,2.5,6.3,2.4,8.9c0.8-0.1,1.7-0.2,2.5-0.2c0.2,0,0.4,0,0.7-0.1l0.1,0
	c0.1,0,0.2,0,0.4,0c1.1-0.1,2.1-0.2,3.2-0.2l0,0c2.5-0.2,5-0.3,7.6-0.4C240.7,155.4,239.8,155,239.8,155z"/>
<path class="st8" d="M263.3,224.1c-4.1,3.6-8.4,6.6-12.6,8.9c-2.1,1.2-4.2,2.2-6.3,3.1c-4.6,2-9,3.4-12.9,4.4
	c-8.6,2.1-14.7,2.1-14.7,2.1c4.7,2.6,10.6,2.6,14.7,2.2c2.8-0.3,4.7-0.8,4.7-0.8c-0.1,1.7-0.3,3.3-0.6,4.8c-0.3,1.6-0.8,3.1-1.4,4.5
	l0,0.1l0,0c-0.7,1.7-1.5,3.2-2.5,4.5c-0.1,0.1-0.2,0.3-0.3,0.4l0.3-0.2c1.5-0.8,3-1.7,4.4-2.6l0,0c1.1-0.7,2.2-1.4,3.3-2.2
	c1.8-1.3,3.6-2.6,5.3-4.1l0,0l0,0c0.1-0.1,0.2-0.2,0.3-0.3c1.7-1.5,3.3-3.1,4.9-4.6c2-2.1,3.8-4.2,5.4-6.4l0.1-0.2
	c0.4-0.5,0.8-1.1,1.2-1.6l0.1-0.2c0.1-0.2,0.2-0.3,0.4-0.5c0.5-0.8,1-1.5,1.5-2.2c0.1-0.2,0.2-0.4,0.4-0.5c0.3-0.4,0.5-0.8,0.7-1.2
	c0.2-0.3,0.4-0.6,0.5-0.9c0.2-0.3,0.4-0.7,0.6-1c0.3-0.6,0.7-1.2,1-1.8c0.1-0.2,0.2-0.5,0.4-0.7c0.2-0.5,0.5-0.9,0.7-1.4
	c0.1-0.2,0.2-0.4,0.3-0.6l0.1-0.2c0.3-0.6,0.5-1.1,0.8-1.7C263.9,223.6,263.6,223.9,263.3,224.1z"/>
<path class="st8" d="M160.9,178.9c-1.2,0.4-2.4,0.9-3.8,1.4c-3.6,1.5-7.7,3.6-11.3,6.5c-0.5,0.4-0.9,0.7-1.3,1.1
	c-0.7,0.7-1.4,1.4-2.1,2.1c-0.1,0.1-0.2,0.2-0.2,0.3c-0.1,0.1-0.2,0.2-0.3,0.3c-0.3,0.3-0.5,0.6-0.8,0.9c-0.1,0.1-0.2,0.3-0.3,0.4
	c-0.3,0.4-0.6,0.9-0.9,1.3c-0.3,0.4-0.6,0.9-0.8,1.4c-2.1,3.7-3.4,8.2-3,13.5l0-0.1l0,0c0,0,0-0.1,0-0.2l0,0c0-0.1,0-0.2,0.1-0.3
	l0-0.1c0-0.1,0.1-0.3,0.1-0.4l0-0.1c0-0.2,0.1-0.3,0.1-0.5l0,0c0.1-0.2,0.1-0.4,0.2-0.6l0-0.1c0.1-0.2,0.1-0.4,0.2-0.7l0-0.1
	c0.1-0.2,0.2-0.4,0.3-0.7l0-0.1c0.1-0.2,0.2-0.5,0.3-0.8l0.1-0.2c0.1-0.3,0.3-0.5,0.4-0.8v0c0,0,0,0,0,0c0.2-0.4,0.4-0.8,0.7-1.2
	c0.1-0.2,0.2-0.3,0.3-0.5l0.1-0.1l0,0c0.2-0.3,0.4-0.6,0.7-1c0.2-0.3,0.4-0.5,0.6-0.8c0.1-0.1,0.1-0.2,0.2-0.2
	c0.2-0.2,0.4-0.4,0.5-0.6c0.1-0.1,0.2-0.2,0.2-0.2c0.3-0.3,0.5-0.5,0.8-0.7l0,0v0v0c0,0-4.9,11-2.7,19.7c0,0,0,0,0-0.1
	c0,0,0,0,0-0.1c0,0,0-0.1,0-0.2c0,0,0,0,0,0c0-0.1,0-0.2,0-0.3c0,0,0,0,0,0c0-0.1,0-0.3,0-0.4c0,0,0,0,0,0c0-0.2,0-0.3,0-0.5
	c0,0,0,0,0,0c0-0.2,0-0.4,0.1-0.6c0,0,0,0,0-0.1c0-0.2,0.1-0.4,0.1-0.7c0,0,0,0,0-0.1c0-0.3,0.1-0.5,0.1-0.8l0-0.1l0-0.1v0
	c0.1-0.3,0.1-0.6,0.2-0.9c0,0,0,0,0-0.1c0.1-0.3,0.2-0.6,0.3-0.9c0-0.1,0.1-0.2,0.1-0.3l0.1-0.2v0c0.1-0.3,0.2-0.5,0.3-0.8l0,0l0,0
	c0.2-0.4,0.3-0.7,0.5-1c0-0.1,0.1-0.2,0.2-0.3c0.2-0.3,0.4-0.7,0.7-1l0,0v0v0h0c0,0-0.3,2.7-0.2,5.9c0,0.5,0,1,0.1,1.6
	c0,0.3,0,0.7,0.1,1.1c0.2-3.5,0.8-6.7,1.8-9.7c0.3-0.8,0.5-1.7,0.8-2.5c0-0.1,0.1-0.2,0.1-0.3c0.3-0.8,0.6-1.5,0.9-2.2
	c0.1-0.1,0.1-0.3,0.2-0.4c0.3-0.7,0.7-1.4,1-2.1c0.1-0.1,0.1-0.2,0.2-0.3c0.7-1.4,1.5-2.8,2.4-4.1c0.1-0.1,0.1-0.2,0.2-0.3
	c0.3-0.5,0.6-0.9,1-1.4c0.1-0.1,0.2-0.3,0.3-0.4c0.1-0.1,0.2-0.2,0.2-0.3c0.4-0.6,0.8-1.1,1.2-1.7c0.1-0.1,0.1-0.2,0.2-0.3
	c0.4-0.6,0.9-1.1,1.3-1.6l0,0c0.6-0.7,1.1-1.3,1.6-1.9c0.4-0.4,0.8-0.9,1.2-1.3c0.1-0.2,0.3-0.3,0.5-0.5c0.9-0.9,1.8-1.8,2.7-2.5
	c2.5-2.3,4.5-3.7,5.2-4.1c-0.4,0.1-0.9,0.2-1.4,0.4C162.9,178.3,162,178.5,160.9,178.9z"/>
<path class="st8" d="M225.6,154.5c0,0,0-0.3-0.1-0.7c-0.4-1.6-2-5.4-8.2-4.8c-6.5,0.6-8.7,5.9-9.3,7.7c-0.1,0.4-0.2,0.6-0.2,0.6
	l0.2,0.2c0.8-0.7,2.4-0.6,3.8,0.3c0.7,0.4,1.2,0.9,1.5,1.5v0c0.6,0.9,0.7,1.8,0.3,2.5c-0.1,0.1-0.2,0.3-0.3,0.4c0,0,0.3,0.1,0.7,0.2
	c1.8,0.5,6.9,1.6,9.6-1.9c0.1-0.2,0.3-0.3,0.4-0.5c-0.5-0.3-0.8-1.1-0.8-2c0-0.4,0.1-0.9,0.2-1.4C223.8,155,224.8,154.1,225.6,154.5
	z"/>
<path class="st8" d="M193.1,202.6c-4.2,0.9-7.9,1.5-10.8,2c0.2,0,0.3,0,0.5,0.1c4.8,0.6,12.4,1.3,21.7,0.8c16.8-1,39-6.3,59.1-24.4
	l0.1-0.1v0v0c0.1-1.5-0.1-4.3-2.1-6.4c-0.3-0.4-0.7-0.7-1.2-1.1c-0.1,0-0.1-0.1-0.2-0.1c-0.5-0.3-1-0.6-1.4-0.9
	c-0.4-0.2-0.7-0.4-1-0.7l0-0.1c-1.2,1.8-2.7,3.5-4.3,5.1c-0.6,0.6-1.2,1.1-1.8,1.7c-5.5,5-12.7,9.2-20.5,12.6
	C218.4,196.6,204,200.3,193.1,202.6z"/>
<path class="st8" d="M86.7,173.3c-0.2,0.2-0.4,0.3-0.5,0.5l-0.2,0.2c-0.2,0.2-0.4,0.5-0.6,0.7l-0.1,0.1c-0.2,0.3-0.4,0.6-0.6,1v0
	l0,0l0,0l-0.1,0.1c0,0.1-0.1,0.2-0.1,0.2c-0.1,0.2-0.2,0.4-0.3,0.6l0,0l0,0l0,0l0,0.1l0,0.1c-0.2,0.3-0.3,0.7-0.4,1
	c-0.4,0.9-0.7,1.8-0.9,2.5c-0.1,0.3-0.2,0.5-0.2,0.7c-0.1,0.5-0.2,0.8-0.3,1l0,0l0,0.1v0v0l0-0.1c0-0.3,0-0.6,0.1-0.8
	c0-0.6,0.1-1.2,0.1-1.8c0.1-0.5,0.1-1,0.2-1.5c0-0.2,0-0.3,0.1-0.5c0-0.2,0.1-0.5,0.1-0.7c0-0.2,0.1-0.4,0.1-0.6l0,0v0l0-0.2l0-0.1
	c0-0.3,0.1-0.5,0.1-0.8c0-0.1,0-0.2,0.1-0.3l0-0.2l0,0c0-0.1,0-0.2,0.1-0.2c0-0.1,0-0.2,0.1-0.3c0.1-0.4,0.2-0.7,0.3-1.1l0-0.1
	c0.1-0.3,0.1-0.5,0.2-0.8l0,0l0,0l0-0.1c0.1-0.6,0.3-1.1,0.5-1.6l0-0.1l0-0.1c0-0.1,0.1-0.2,0.1-0.3c0.3-0.9,0.5-1.7,0.8-2.6l0-0.1
	c0.3-0.7,0.5-1.4,0.8-2.1l0-0.1c0.1-0.3,0.2-0.6,0.4-0.9l0,0c0.2-0.5,0.4-0.9,0.6-1.3l0,0v0l0,0l0-0.1c0.1-0.1,0.2-0.4,0.3-0.8l0,0
	l0-0.1v0c0.1-0.2,0.1-0.3,0.2-0.5c0.1-0.3,0.2-0.5,0.3-0.7l0.1-0.2c-0.2-0.1-0.3-0.2-0.5-0.2l-0.1,0l-0.2-0.1
	c-1.1-0.5-2.2-0.9-3.3-1.2l-0.2,0c-0.7-0.2-1.5-0.3-2.3-0.4l0,0c-0.4-0.1-0.9-0.1-1.3-0.1c-0.4,0-0.8,0-1.1,0
	c-0.6,0-1.1,0.1-1.7,0.1c-0.2,0-0.3,0.1-0.5,0.1c-0.3,0-0.5,0.1-0.8,0.1c-0.1,0-0.2,0-0.3,0.1c-0.2,0-0.4,0.1-0.6,0.1
	c-0.4,0.1-0.7,0.2-1.1,0.3c-0.2,0.1-0.3,0.1-0.5,0.2c-0.5,0.2-1,0.4-1.4,0.6c-0.2,0.1-0.4,0.2-0.5,0.3c-0.2,0.1-0.4,0.2-0.6,0.3
	l-0.2,0.1c-0.2,0.1-0.5,0.3-0.7,0.4c-0.2,0.1-0.4,0.3-0.6,0.4c-0.2,0.2-0.5,0.3-0.7,0.5c-0.1,0.1-0.3,0.2-0.4,0.3
	c-0.4,0.3-0.7,0.6-1.1,1c-0.2,0.2-0.4,0.3-0.5,0.5c-0.3,0.3-0.6,0.6-0.9,1l-0.1,0.2c-0.2,0.2-0.3,0.4-0.4,0.6l0,0l0,0
	c-0.1,0.1-0.2,0.2-0.3,0.4l0,0l0,0.1l0,0l0,0c-0.6,0.8-1.1,1.7-1.5,2.6c-0.1,0.1-0.1,0.3-0.2,0.4c-0.2,0.4-0.4,0.9-0.6,1.3
	c-0.1,0.2-0.1,0.4-0.2,0.5l0,0v0c0,0.1,0.1,0.2,0.1,0.3c0.1,0.4,0.3,0.8,0.4,1.2l0,0.1l0.1,0.1c0.1,0.4,0.3,0.8,0.4,1.1
	c0.5,1.1,0.9,2.1,1.4,3c0.1,0.1,0.1,0.3,0.2,0.4l0.1,0.1l0.1,0.1c0.4,0.6,0.7,1.2,1,1.7c0.5,0.8,1,1.4,1.3,1.8
	c0.1,0.1,0.1,0.2,0.2,0.2c0,0.1,0.1,0.1,0.1,0.2c0.1,0.1,0.2,0.2,0.2,0.2c0-0.2-0.1-0.4-0.1-0.6c-0.3-1.4-0.4-2.9-0.5-4.2l0-0.1
	l0-0.2c0-0.9,0-1.8,0.1-2.6h0l0,0c0.1,0.3,0.2,0.6,0.3,1c0.1,0.5,0.3,0.9,0.5,1.4l0.1,0.2l0,0.1c0.7,1.9,1.5,3.5,2.2,4.8
	c0.9,1.5,1.7,2.6,2.2,3.2c0.1,0.1,0.2,0.2,0.3,0.3c0.1,0.2,0.2,0.2,0.2,0.2c-0.4-1.5-0.5-3-0.6-4.5c0-0.5,0-1,0-1.5
	c0-0.6,0-1.2,0.1-1.8v0v0c0.3,1,0.6,2,0.9,2.9l0,0.1c1.2,3.2,2.7,5.6,3.7,7.1l0.1,0.2c0.2,0.2,0.3,0.4,0.5,0.6
	c0.1,0.1,0.2,0.2,0.3,0.3c0.1,0.1,0.2,0.2,0.2,0.3c0.1,0.1,0.1,0.1,0.1,0.1l0-0.2c0-0.2-0.1-0.4-0.1-0.6c-0.1-0.8-0.2-1.5-0.3-2.3
	c0-0.5-0.1-1-0.1-1.5c0-0.5,0-0.9,0-1.4c0-0.1,0-0.2,0-0.2c0-0.2,0-0.5,0-0.7l0-0.1l0-0.1c0-0.6,0.1-1.2,0.2-1.8v0v0
	c0.1,0.4,0.2,0.8,0.4,1.1c0.1,0.3,0.2,0.5,0.3,0.8l0,0.1l0,0.1l0.1,0.2c0.1,0.3,0.2,0.6,0.4,0.9c0.2,0.6,0.5,1.1,0.7,1.6
	c0.3,0.6,0.6,1.2,0.9,1.7c0.2,0.3,0.3,0.6,0.5,0.8c0.2,0.3,0.4,0.6,0.6,0.9c0.2,0.3,0.3,0.5,0.5,0.7c0,0.1,0.1,0.1,0.1,0.2
	c0.1,0.2,0.3,0.4,0.4,0.5c0.1,0.1,0.2,0.2,0.3,0.3c0.2,0.2,0.3,0.4,0.4,0.5l0,0l0.1,0.1c0-0.1,0-0.2,0-0.3c0.1-0.9,0.2-1.9,0.4-2.8
	c0-0.1,0-0.2,0.1-0.3c0.2-1.1,0.3-2.1,0.5-3.2c0-0.1,0-0.3,0.1-0.4l0-0.1c0-0.1,0-0.2,0.1-0.4c0-0.2,0.1-0.4,0.1-0.5
	c0.1-0.8,0.3-1.6,0.4-2.3c0.1-0.7,0.3-1.3,0.4-1.9l0-0.2c0-0.1,0-0.2,0.1-0.3c0-0.1,0-0.2,0.1-0.3l0,0c0-0.1,0.1-0.3,0.1-0.4l0,0
	c0-0.1,0.1-0.3,0.1-0.4c0-0.2,0.1-0.4,0.1-0.6l0-0.1c0-0.2,0.1-0.3,0.1-0.5c0-0.2,0.1-0.4,0.1-0.6l0,0l0,0c0-0.1,0-0.2,0.1-0.3l0,0
	c0-0.1,0-0.2,0.1-0.3c0-0.2,0.1-0.4,0.1-0.5l0-0.1l0,0l0-0.1l0-0.1l0,0l0,0L86.7,173.3z"/>
<path class="st8" d="M222.8,220.3c1.6-0.5,3-1,4-1.5c2.1-0.9,3.3-1.5,3.2-1.8c-0.1-0.2-1.4-0.1-3.7,0.5c-1.1,0.3-2.5,0.5-4.1,0.9
	c-0.8,0.2-1.7,0.3-2.6,0.5c-0.9,0.2-1.9,0.4-2.9,0.5c-2,0.3-4.3,0.5-6.7,0.8c-1.2,0.1-2.4,0.2-3.7,0.3c-1.3,0.1-2.6,0.1-3.9,0.2
	c-5.4,0.2-11.4-0.1-17.4-1.2c-3.2-0.6-7.5-2-10.5-3.8l-0.1-0.1c1.8-6.4,8.5-7.3,8.5-7.3l-0.2-0.1c-0.1,0-0.2,0-0.3,0
	c-1-0.1-1.8-0.2-2.6-0.3c-0.5-0.1-1-0.1-1.4-0.2c-0.4,0-0.6-0.1-0.8-0.1c-4-0.3-6.2,3.1-7,4.6c-0.1,0.2-0.2,0.4-0.3,0.7
	c-0.6,1.3-1,2.9-1.1,4.5c-0.2,3,0.6,6.3,2.9,9.1c1.5,1.9,4.2,3.6,7.7,4.9c-3-1.9-5.7-5.6-5.9-11.4c3.4,1.5,7.4,2.4,10.4,2.9
	c6.4,1.2,12.7,1.3,18.2,1c1.4-0.1,2.8-0.2,4.1-0.4c1.3-0.2,2.6-0.3,3.8-0.5c2.4-0.4,4.6-0.8,6.7-1.3c1-0.2,2-0.5,2.9-0.7
	C221.1,220.8,222,220.6,222.8,220.3z"/>
<path class="st0" d="M217.5,145.2c3.4,0.1,5.6,1.1,7.2,2.7c0.4-1.5,0.6-3.3,0.4-5.2c-0.1-2.1-0.6-4-1.2-5.5
	c-0.2-0.9-1.6-3.3-3.2-3.2c-2.2,0.1-3.7,4.2-3.4,9.2C217.3,143.8,217.4,144.5,217.5,145.2z"/>
<path class="st0" d="M223.1,157.9c0,0.9,0.3,1.7,0.8,2c0.8,0.4,1.8-0.5,2.3-2c0-0.1,0.1-0.3,0.1-0.4v0c0.3-1.3,0-2.6-0.7-3
	c-0.8-0.4-1.8,0.5-2.3,1.9C223.2,157,223.1,157.5,223.1,157.9z"/>
<path class="st0" d="M207.9,160.3c0.4,0.6,0.9,1.1,1.6,1.6c1.5,0.9,3.1,1,3.9,0.3c0.1-0.1,0.2-0.2,0.3-0.4c0.4-0.7,0.2-1.6-0.3-2.5
	l0,0c-0.4-0.6-0.9-1.1-1.5-1.5c-1.4-0.9-3-1-3.8-0.3c-0.1,0.1-0.3,0.2-0.3,0.4C207.2,158.6,207.4,159.5,207.9,160.3L207.9,160.3z"/>
<g>
	<path class="st0" d="M263.6,180.9L263.6,180.9L263.6,180.9l-0.1,0.1C263.6,181,263.6,181,263.6,180.9L263.6,180.9z"/>
	<path class="st0" d="M261.9,212L261.9,212c-2.1,2-4.5,3.9-7.2,5.7c-11.6,7.9-27.7,14-39.2,15.6l0,0l0,0c-8.6,1.4-17.1,1.6-24.4,0.7
		c-4.2-0.5-8-1.4-11.2-2.6c-3.5-1.3-6.2-3-7.7-4.9c-2.3-2.8-3.1-6.1-2.9-9.1c0.1-1.6,0.5-3.1,1.1-4.5c0.1-0.2,0.2-0.4,0.3-0.7
		c0.8-1.5,3-4.9,7-4.6c0.2,0,0.4,0,0.8,0.1c0.4,0,0.8,0.1,1.4,0.2c0.7,0.1,1.6,0.2,2.6,0.3c0.1,0,0.2,0,0.3,0
		c11.1,1.4,21.8,1.2,31.9-0.3c14.7-2.3,28.3-7.5,40.4-15.7c0.6-0.4,1.3-0.9,1.9-1.3l6.6-9.9c-20.1,18.1-42.2,23.4-59,24.4
		c-9.2,0.6-16.9-0.2-21.7-0.8c-0.2,0-0.3,0-0.5-0.1c-1.4-0.2-2.6-0.3-3.5-0.5c-0.4-0.1-0.8-0.1-1-0.1c-1.3-0.1-2.5,0.1-3.6,0.4
		c-2.3,0.7-4.2,2.3-5.7,4.3c-1.8,2.5-2.9,5.8-2.9,9.2c0,2.8,0.6,5.7,2.1,8.4c0.1,0.1,0.1,0.2,0.2,0.3c0.2,0.3,0.4,0.6,0.6,0.9
		c0.3,0.4,0.5,0.8,0.9,1.1c3.5,4.3,11.1,7.6,21.2,8.8c6.8,0.9,14.8,0.8,23.5-0.4c25.6-4.6,37.7-12.9,43.4-18.7
		c0.4-0.4,0.8-0.8,1.1-1.2c2-2.3,2.9-4.1,3.3-4.9l0-0.1c0.1-0.2,0.1-0.3,0.1-0.3L261.9,212z"/>
</g>
<path class="st9" d="M180.5,123.3c-0.8-0.4-1.7-0.8-2.6-1c-0.6-0.1-1.2-0.2-1.8-0.3c-0.2,0-0.4,0-0.7-0.1c-3-0.3-5.6,0.2-5.6,0.2
	c-0.6,0.1-1.1,0.3-1.6,0.4c-4.1,1.2-6.9,3.4-8.9,5.8c-1.6,2-2.6,4.2-3.3,6.3c-0.1,0.2-0.1,0.4-0.2,0.6c-0.2,0.5-0.3,1.1-0.4,1.6
	c-0.4,1.8-0.5,3.4-0.6,4.7c-0.1,1.8,0.1,2.9,0.1,2.9c0.7-1.6,1.4-3,2.2-4.3c1.9-3.3,3.9-6,6-8.1c4-4.2,8.2-6.4,11.4-7.5
	C178.1,123.4,180.5,123.3,180.5,123.3z"/>
<path class="st9" d="M229.1,117.5l-0.1-0.2c-0.5-0.6-1-1.1-1.7-1.6c-1.5-1.1-3.7-1.6-6.6-1c0,0-3.5,0.8-5.6,3.1c0,0,6.1-2.6,12.6,2
	c0.6,0.4,1.2,0.9,1.8,1.5c0.6,0.6,1.2,1.2,1.8,1.9c0,0-0.3-2.8-1.9-5.2C229.3,117.8,229.2,117.7,229.1,117.5z"/>
<path class="st0" d="M181.2,162.3c2.3-0.7,4.9-1.4,7.6-2c0.5-2.1,0.6-4.7,0.3-7.5c-0.8-6.6-3.7-11.6-6.6-11.2
	c-2.9,0.4-4.6,6-3.8,12.5C179.1,157.3,180,160.3,181.2,162.3z"/>
<path class="st10" d="M167.9,15.4l-6,1.4l1.3,11.1L147,19.7l-6.6,2l0.1,0.1L160,44l0.2-0.1l0.3-0.2c0.6-0.4,1.2-0.8,1.8-1.2
	c0.2-0.1,0.4-0.3,0.6-0.4c0.9-0.5,1.8-1.1,2.7-1.6l-8.3-9.5l13.4,6.6l0.1,0c0.4-0.2,0.8-0.4,1.2-0.7l-1.2-9.6l6.1,7l0.1,0
	c0.5-0.3,1-0.5,1.5-0.8l0.2-0.1l0.2-0.1c0.1,0,0.2-0.1,0.3-0.1c0.2-0.1,0.4-0.2,0.6-0.3c0,0,0.1,0,0.1-0.1c0.7-0.3,1.4-0.7,2.1-1
	L167.9,15.4z"/>
<polygon class="st6" points="161.9,17.2 161.8,16.8 161.9,17.2 "/>
<path class="st11" d="M161.8,16.8l0.9-0.2c-1.5-0.7-3.2-1.2-5.3-1.4c-4.1-0.5-9.2,0-15.1,1.5c-5.9,1.5-12.5,4-19.5,7.5
	c-14,7-29.6,17.7-44.5,31.4c-5.2,4.8-10.1,9.6-14.6,14.5L82,92.4c4.9-5.4,10.3-10.8,16.1-16.1c7.7-7,15.6-13.3,23.4-18.8
	c7.5-5.3,15-9.8,22.2-13.4l-3.2-14.2l0.1-8.1l-0.1-0.1l6.6-2l12.9,6.6l-0.4-4.5L161.8,16.8z"/>
<polygon class="st1" points="161.8,16.8 159.6,21.8 160,26.3 163.1,27.9 "/>
<polygon class="st1" points="157.3,31.1 170.7,37.6 165.6,40.6 "/>
<polygon class="st1" points="170.8,27.4 172,37 176.9,34.4 "/>
<path class="st7" d="M221.5,23.8c0.8,0,1.6,0,2.4,0c2.3,0,4.4,0.3,6.4,0.8c0.1,0,0.2,0,0.3,0.1l0,0l0.1,0l0.2,0.1l0.2,0.1
	c-0.2-0.2-0.5-0.3-0.7-0.5c-2.3-0.9-4.6-1.4-7.1-1.7c-12.2-1.6-26,2.9-34,6c-0.4,0.2-0.9,0.4-1.3,0.6c-0.7,0.3-1.3,0.6-2,0.9
	c-1.1,0.5-2.3,1-3.5,1.6c-0.2,0.1-0.3,0.2-0.5,0.2c-0.7,0.3-1.4,0.7-2.1,1c0,0-0.1,0-0.1,0.1c-0.2,0.1-0.4,0.2-0.6,0.3
	c-0.1,0-0.2,0.1-0.3,0.1l-0.2,0.1l-0.2,0.1c-0.5,0.3-1,0.5-1.5,0.8l-0.1,0c0,0,0,0,0,0c-0.1,0.1-0.2,0.1-0.4,0.2l-0.1,0
	c-0.1,0-0.2,0.1-0.3,0.1c-0.8,0.4-1.6,0.8-2.4,1.2c-0.5,0.3-1.1,0.6-1.6,0.9l-0.1,0c-0.4,0.2-0.8,0.4-1.2,0.7l-0.1,0
	c-1.3,0.7-2.6,1.5-3.9,2.2c-0.1,0.1-0.3,0.2-0.4,0.2c-0.1,0.1-0.2,0.1-0.3,0.2c-0.1,0.1-0.2,0.1-0.3,0.2l-0.1,0.1
	c-0.9,0.5-1.8,1.1-2.7,1.6c-0.2,0.1-0.4,0.3-0.6,0.4c-0.6,0.4-1.2,0.8-1.8,1.2l-0.3,0.2L160,44c-1.7,1.1-3.4,2.2-5,3.3
	c-2.8,1.9-5.5,3.8-8.2,5.8c-0.3,0.3-0.7,0.5-1,0.8c-7,5.3-13.8,11-20.4,16.9c-6.9,6.2-13.4,12.7-19.6,19.2c-3.4,3.4-6.2,6.4-8.6,8.9
	c-4.7,5.1-7.3,8.2-7.2,8.3c0,0,0.5-0.3,1.2-1.1c-0.6,0.7-1.2,1.4-1.8,2.1c10.3-11,21.7-22.2,33.9-32.8c7.4-6.4,15.2-12.6,23.2-18.3
	v0c3.5-2.5,7.1-4.9,10.7-7.3c1.1-0.7,2.3-1.5,3.5-2.2c0.6-0.4,1.2-0.7,1.7-1.1c0.3-0.2,0.7-0.4,1-0.6c0.6-0.4,1.2-0.7,1.9-1.1
	c0.6-0.4,1.2-0.7,1.8-1.1c0.3-0.2,0.6-0.4,1-0.6c0.8-0.4,1.6-0.9,2.3-1.3c0.5-0.3,0.9-0.5,1.4-0.8l0,0c1.5-0.8,3-1.6,4.4-2.3
	c0.1-0.1,0.2-0.1,0.4-0.2c0.2-0.1,0.5-0.2,0.7-0.4c0.3-0.2,0.6-0.3,0.9-0.5c0.1-0.1,0.2-0.1,0.3-0.2l0,0c0.2-0.1,0.4-0.2,0.6-0.3
	c0,0,0.1,0,0.1-0.1l0.1,0c0.7-0.3,1.3-0.6,1.9-0.9c0.1-0.1,0.2-0.1,0.4-0.2c0.2-0.1,0.4-0.2,0.6-0.3c0.7-0.4,1.5-0.7,2.2-1
	c0.2-0.1,0.4-0.2,0.6-0.3c0.1,0,0.2-0.1,0.3-0.1c0.2-0.1,0.4-0.2,0.6-0.3c0.9-0.4,1.7-0.8,2.6-1.1c0.8-0.3,1.5-0.6,2.3-1
	c4.2-1.8,8.2-3.3,11.9-4.5C210,25.3,216.1,24.1,221.5,23.8z"/>
</svg>
